<svg xmlns="http://www.w3.org/2000/svg" viewBox="0 0 278.03 121.03"><defs><style>.cls-1,.cls-6{fill:#5c667f;}.cls-1{opacity:0.07;}.cls-10,.cls-11,.cls-2,.cls-3,.cls-4,.cls-5,.cls-7,.cls-8{fill:#fff;}.cls-10,.cls-11,.cls-12,.cls-2,.cls-3,.cls-4,.cls-7,.cls-8,.cls-9{stroke:#5c667f;}.cls-2{stroke-miterlimit:6;}.cls-2,.cls-3,.cls-4,.cls-9{stroke-width:0.95px;}.cls-10,.cls-11,.cls-12,.cls-3{stroke-linecap:round;}.cls-11,.cls-12,.cls-3{stroke-linejoin:round;}.cls-10,.cls-4,.cls-7,.cls-8,.cls-9{stroke-miterlimit:10;}.cls-8{stroke-width:1.06px;}.cls-12,.cls-9{fill:none;}.cls-12{stroke-width:1.5px;}</style></defs><g id="Layer_2" data-name="Layer 2"><g id="Layer_1-2" data-name="Layer 1"><polygon class="cls-1" points="156.69 56.38 149.08 56.38 149.08 53.41 140.09 53.41 140.09 56.38 132.49 56.38 132.49 61.07 128.83 61.07 128.83 67.28 124.81 67.28 124.81 61.2 122 61.2 122 55.03 117.08 38.65 112.18 55.03 112.18 61.2 109.59 61.2 109.59 67.28 107.7 67.28 107.7 65.66 90.64 65.66 90.64 74.3 88.06 74.3 88.06 96.09 70.56 104.17 70.56 119.49 107.6 119.49 107.6 119.49 110.28 119.49 110.28 119.49 128.83 119.49 128.83 119.49 160.34 119.49 160.34 61.07 156.69 61.07 156.69 56.38"/><polygon class="cls-1" points="180.26 41.85 173.4 39.39 173.4 33.14 172.39 33.14 172.39 39.02 165.86 36.68 165.86 44.77 163.08 43.77 163.08 106.59 182.83 106.59 182.83 50.87 180.26 49.94 180.26 41.85"/><polygon class="cls-1" points="206.76 55.63 203.86 55.63 203.86 51.39 201.72 51.39 201.72 47.83 200.34 47.83 200.34 44.02 197.25 44.02 197.25 35.98 196.3 35.98 196.3 44.02 193.21 44.02 193.21 47.83 191.83 47.83 191.83 51.39 189.68 51.39 189.68 55.63 186.78 55.63 186.78 60.23 183.76 60.23 183.76 119.49 209.78 119.49 209.78 60.23 206.76 60.23 206.76 55.63"/><polygon class="cls-1" points="278.03 93.82 271.45 93.82 271.45 88.69 264.63 88.69 264.63 73.78 262.71 73.78 262.71 68.96 257.85 68.96 257.85 65.9 252.12 65.9 252.12 68.96 247.27 68.96 247.27 73.78 244.94 73.78 244.94 85.42 242.54 85.42 242.54 60.42 230.91 67.36 230.91 88.69 229.31 88.69 229.31 52.02 214.6 44.02 214.6 119.49 229.31 119.49 229.31 119.49 278.03 119.49 278.03 93.82"/><path class="cls-2" d="M215.39,23.33c0-3.84-3.82-4.19-6.12-2.95a2.8,2.8,0,0,0-4.58-3.09c.36-2.6-2-5.51-5.91-4.75s-4.45,4.07-3.86,7.21c-3-3-9.45-2.28-9.3,3.58Z"/><path class="cls-2" d="M131.83,71.34c0-2.67-2.65-2.91-4.26-2a1.94,1.94,0,0,0-3.18-2.15c.25-1.81-1.37-3.83-4.11-3.3s-3.09,2.83-2.68,5c-2.06-2.1-6.57-1.59-6.46,2.49Z"/><path class="cls-2" d="M143.48,48.8c0-2.14,3.29-2.86,4.76-1.64a2.6,2.6,0,0,1,4.62-1.73c.37-5.11,9.26-4.28,8.61,1.34,2.3-1.69,5.35.14,5.13,2Z"/><path class="cls-2" d="M237.61,5.46c0-1.57,2.43-2.1,3.51-1.21A1.92,1.92,0,0,1,244.53,3c.27-3.77,6.83-3.16,6.35,1,1.7-1.25,4,.1,3.79,1.49Z"/><path class="cls-2" d="M237.34,50.58c0-1.69-2.61-2.25-3.76-1.3a2,2,0,0,0-3.65-1.35c-.29-4-7.31-3.39-6.8,1-1.82-1.33-4.22.11-4,1.6Z"/><path class="cls-3" d="M200.61,38A4.19,4.19,0,0,1,203,39.9,6.36,6.36,0,0,1,205.55,38"/><path class="cls-3" d="M79.08,96.56a4.16,4.16,0,0,1,2.42,1.93A6.43,6.43,0,0,1,84,96.6"/><path class="cls-3" d="M72.73,92.4a3.33,3.33,0,0,1,1.63,1.07,3.67,3.67,0,0,1,1.48-1.31"/><path class="cls-3" d="M229.9,22.92A3.29,3.29,0,0,1,231.53,24,3.82,3.82,0,0,1,233,22.67"/><polygon class="cls-4" points="194.75 59.37 191.31 59.37 191.31 55.08 189.03 55.08 189.03 50.71 185.04 39.13 181.06 50.71 181.06 55.08 178.96 55.08 178.96 59.37 175.47 59.37 175.47 120.28 194.75 120.28 194.75 59.37"/><rect class="cls-5" x="180.64" y="62.25" width="0.08" height="43.96"/><polygon class="cls-6" points="181.2 61.78 180.17 61.78 180.17 106.69 181.2 106.69 181.2 61.78 181.2 61.78"/><rect class="cls-5" x="183.59" y="62.25" width="0.08" height="43.96"/><polygon class="cls-6" points="184.15 61.78 183.12 61.78 183.12 106.69 184.15 106.69 184.15 61.78 184.15 61.78"/><rect class="cls-5" x="186.54" y="62.25" width="0.08" height="43.96"/><polygon class="cls-6" points="187.1 61.78 186.06 61.78 186.06 106.69 187.1 106.69 187.1 61.78 187.1 61.78"/><rect class="cls-5" x="189.49" y="62.25" width="0.09" height="43.96"/><polygon class="cls-6" points="190.05 61.78 189.01 61.78 189.01 106.69 190.05 106.69 190.05 61.78 190.05 61.78"/><polygon class="cls-4" points="232.96 69.52 232.96 63.3 227.69 61.41 227.69 56.6 226.91 56.6 226.91 61.13 221.89 59.33 221.89 65.54 219.76 64.78 219.76 107.49 234.93 107.49 234.93 70.23 232.96 69.52"/><polygon class="cls-7" points="139.24 84.22 139.24 82.24 130.52 82.24 130.52 84.22 126.8 84.22 126.8 119.48 142.96 119.48 142.96 84.22 139.24 84.22"/><rect class="cls-5" x="131.02" y="88.8" width="0.77" height="0.91"/><polygon class="cls-6" points="132.3 88.3 130.52 88.3 130.52 90.21 132.3 90.21 132.3 88.3 132.3 88.3"/><rect class="cls-5" x="134.49" y="88.8" width="0.77" height="0.91"/><polygon class="cls-6" points="135.77 88.3 133.99 88.3 133.99 90.21 135.77 90.21 135.77 88.3 135.77 88.3"/><rect class="cls-5" x="137.96" y="88.8" width="0.77" height="0.91"/><polygon class="cls-6" points="139.24 88.3 137.46 88.3 137.46 90.21 139.24 90.21 139.24 88.3 139.24 88.3"/><rect class="cls-5" x="131.02" y="92.3" width="0.77" height="0.91"/><polygon class="cls-6" points="132.3 91.8 130.52 91.8 130.52 93.71 132.3 93.71 132.3 91.8 132.3 91.8"/><rect class="cls-5" x="134.49" y="92.3" width="0.77" height="0.91"/><polygon class="cls-6" points="135.77 91.8 133.99 91.8 133.99 93.71 135.77 93.71 135.77 91.8 135.77 91.8"/><rect class="cls-5" x="137.96" y="92.3" width="0.77" height="0.91"/><polygon class="cls-6" points="139.24 91.8 137.46 91.8 137.46 93.71 139.24 93.71 139.24 91.8 139.24 91.8"/><rect class="cls-5" x="131.02" y="95.8" width="0.77" height="0.91"/><polygon class="cls-6" points="132.3 95.31 130.52 95.31 130.52 97.22 132.3 97.22 132.3 95.31 132.3 95.31"/><rect class="cls-5" x="134.49" y="95.8" width="0.77" height="0.91"/><polygon class="cls-6" points="135.77 95.31 133.99 95.31 133.99 97.22 135.77 97.22 135.77 95.31 135.77 95.31"/><rect class="cls-5" x="137.96" y="95.8" width="0.77" height="0.91"/><polygon class="cls-6" points="139.24 95.31 137.46 95.31 137.46 97.22 139.24 97.22 139.24 95.31 139.24 95.31"/><rect class="cls-5" x="131.02" y="99.31" width="0.77" height="0.91"/><polygon class="cls-6" points="132.3 98.81 130.52 98.81 130.52 100.72 132.3 100.72 132.3 98.81 132.3 98.81"/><rect class="cls-5" x="134.49" y="99.31" width="0.77" height="0.91"/><polygon class="cls-6" points="135.77 98.81 133.99 98.81 133.99 100.72 135.77 100.72 135.77 98.81 135.77 98.81"/><rect class="cls-5" x="137.96" y="99.31" width="0.77" height="0.91"/><polygon class="cls-6" points="139.24 98.81 137.46 98.81 137.46 100.72 139.24 100.72 139.24 98.81 139.24 98.81"/><rect class="cls-5" x="131.02" y="102.81" width="0.77" height="0.91"/><polygon class="cls-6" points="132.3 102.31 130.52 102.31 130.52 104.22 132.3 104.22 132.3 102.31 132.3 102.31"/><rect class="cls-5" x="134.49" y="102.81" width="0.77" height="0.91"/><polygon class="cls-6" points="135.77 102.31 133.99 102.31 133.99 104.22 135.77 104.22 135.77 102.31 135.77 102.31"/><rect class="cls-5" x="137.96" y="102.81" width="0.77" height="0.91"/><polygon class="cls-6" points="139.24 102.31 137.46 102.31 137.46 104.22 139.24 104.22 139.24 102.31 139.24 102.31"/><rect class="cls-5" x="131.02" y="106.31" width="0.77" height="0.91"/><polygon class="cls-6" points="132.3 105.81 130.52 105.81 130.52 107.73 132.3 107.73 132.3 105.81 132.3 105.81"/><rect class="cls-5" x="134.49" y="106.31" width="0.77" height="0.91"/><polygon class="cls-6" points="135.77 105.81 133.99 105.81 133.99 107.73 135.77 107.73 135.77 105.81 135.77 105.81"/><rect class="cls-5" x="137.96" y="106.31" width="0.77" height="0.91"/><polygon class="cls-6" points="139.24 105.81 137.46 105.81 137.46 107.73 139.24 107.73 139.24 105.81 139.24 105.81"/><polygon class="cls-4" points="105.54 81.98 105.54 78.6 102.15 78.6 102.15 76.45 100.25 76.45 100.25 73.95 99.4 73.95 99.4 76.45 97.81 76.45 97.81 73.95 96.97 73.95 96.97 76.45 95.42 76.45 95.42 78.6 92.03 78.6 92.03 81.98 89.98 81.98 89.98 119.65 107.58 119.65 107.58 81.98 105.54 81.98"/><rect class="cls-4" x="93.79" y="83.81" width="9.98" height="1.56"/><rect class="cls-4" x="93.79" y="87.9" width="9.98" height="1.56"/><rect class="cls-4" x="93.79" y="91.99" width="9.98" height="1.56"/><rect class="cls-4" x="93.79" y="96.08" width="9.98" height="1.56"/><rect class="cls-4" x="93.79" y="100.17" width="9.98" height="1.56"/><rect class="cls-4" x="93.79" y="104.26" width="9.98" height="1.56"/><rect class="cls-4" x="93.79" y="108.35" width="9.98" height="1.56"/><rect class="cls-4" x="93.79" y="112.44" width="9.98" height="1.56"/><polygon class="cls-1" points="275.95 61.53 254.7 61.53 254.7 68.21 256.97 68.21 256.97 120.21 273.68 120.21 273.68 68.21 275.95 68.21 275.95 61.53"/><polygon class="cls-4" points="260.4 50.38 260.4 46.62 258.03 46.62 258.03 43.17 256.28 43.17 256.28 40.27 255.16 40.27 255.16 37.16 252.63 37.16 252.63 30.6 251.86 30.6 251.86 37.16 249.34 37.16 249.34 40.27 248.22 40.27 248.22 43.17 246.47 43.17 246.47 46.62 244.1 46.62 244.1 50.38 241.64 50.38 241.64 119.86 262.86 119.86 262.86 50.38 260.4 50.38"/><rect class="cls-5" x="246.62" y="51" width="0.45" height="41.82"/><polygon class="cls-6" points="247.54 50.52 246.14 50.52 246.14 93.3 247.54 93.3 247.54 50.52 247.54 50.52"/><rect class="cls-5" x="250.22" y="51" width="0.45" height="41.82"/><polygon class="cls-6" points="251.15 50.52 249.75 50.52 249.75 93.3 251.15 93.3 251.15 50.52 251.15 50.52"/><rect class="cls-5" x="253.82" y="51" width="0.45" height="41.82"/><polygon class="cls-6" points="254.75 50.52 253.35 50.52 253.35 93.3 254.75 93.3 254.75 50.52 254.75 50.52"/><rect class="cls-5" x="257.43" y="51" width="0.45" height="41.82"/><polygon class="cls-6" points="258.36 50.52 256.95 50.52 256.95 93.3 258.36 93.3 258.36 50.52 258.36 50.52"/><polygon class="cls-7" points="262.05 78.16 262.05 74.06 258.47 74.06 258.47 71.45 254.25 71.45 254.25 74.06 250.67 74.06 250.67 78.16 248.96 78.16 248.96 119.78 263.76 119.78 263.76 78.16 262.05 78.16"/><rect class="cls-5" x="252.31" y="80.53" width="0.67" height="0.82"/><polygon class="cls-6" points="253.48 80.03 251.81 80.03 251.81 81.85 253.48 81.85 253.48 80.03 253.48 80.03"/><rect class="cls-5" x="256.02" y="80.53" width="0.67" height="0.82"/><polygon class="cls-6" points="257.18 80.03 255.52 80.03 255.52 81.85 257.18 81.85 257.18 80.03 257.18 80.03"/><rect class="cls-5" x="259.72" y="80.53" width="0.67" height="0.82"/><polygon class="cls-6" points="260.89 80.03 259.22 80.03 259.22 81.85 260.89 81.85 260.89 80.03 260.89 80.03"/><rect class="cls-5" x="252.31" y="83.85" width="0.67" height="0.82"/><polygon class="cls-6" points="253.48 83.35 251.81 83.35 251.81 85.17 253.48 85.17 253.48 83.35 253.48 83.35"/><rect class="cls-5" x="256.02" y="83.85" width="0.67" height="0.82"/><polygon class="cls-6" points="257.18 83.35 255.52 83.35 255.52 85.17 257.18 85.17 257.18 83.35 257.18 83.35"/><rect class="cls-5" x="259.72" y="83.85" width="0.67" height="0.82"/><polygon class="cls-6" points="260.89 83.35 259.22 83.35 259.22 85.17 260.89 85.17 260.89 83.35 260.89 83.35"/><rect class="cls-5" x="252.31" y="87.17" width="0.67" height="0.82"/><polygon class="cls-6" points="253.48 86.67 251.81 86.67 251.81 88.49 253.48 88.49 253.48 86.67 253.48 86.67"/><rect class="cls-5" x="256.02" y="87.17" width="0.67" height="0.82"/><polygon class="cls-6" points="257.18 86.67 255.52 86.67 255.52 88.49 257.18 88.49 257.18 86.67 257.18 86.67"/><rect class="cls-5" x="259.72" y="87.17" width="0.67" height="0.82"/><polygon class="cls-6" points="260.89 86.67 259.22 86.67 259.22 88.49 260.89 88.49 260.89 86.67 260.89 86.67"/><rect class="cls-5" x="252.31" y="90.49" width="0.67" height="0.82"/><polygon class="cls-6" points="253.48 89.99 251.81 89.99 251.81 91.81 253.48 91.81 253.48 89.99 253.48 89.99"/><rect class="cls-5" x="256.02" y="90.49" width="0.67" height="0.82"/><polygon class="cls-6" points="257.18 89.99 255.52 89.99 255.52 91.81 257.18 91.81 257.18 89.99 257.18 89.99"/><rect class="cls-5" x="259.72" y="90.49" width="0.67" height="0.82"/><polygon class="cls-6" points="260.89 89.99 259.22 89.99 259.22 91.81 260.89 91.81 260.89 89.99 260.89 89.99"/><rect class="cls-5" x="252.31" y="93.81" width="0.67" height="0.82"/><polygon class="cls-6" points="253.48 93.31 251.81 93.31 251.81 95.13 253.48 95.13 253.48 93.31 253.48 93.31"/><rect class="cls-5" x="256.02" y="93.81" width="0.67" height="0.82"/><polygon class="cls-6" points="257.18 93.31 255.52 93.31 255.52 95.13 257.18 95.13 257.18 93.31 257.18 93.31"/><rect class="cls-5" x="259.72" y="93.81" width="0.67" height="0.82"/><polygon class="cls-6" points="260.89 93.31 259.22 93.31 259.22 95.13 260.89 95.13 260.89 93.31 260.89 93.31"/><rect class="cls-5" x="252.31" y="97.13" width="0.67" height="0.82"/><polygon class="cls-6" points="253.48 96.63 251.81 96.63 251.81 98.45 253.48 98.45 253.48 96.63 253.48 96.63"/><rect class="cls-5" x="256.02" y="97.13" width="0.67" height="0.82"/><polygon class="cls-6" points="257.18 96.63 255.52 96.63 255.52 98.45 257.18 98.45 257.18 96.63 257.18 96.63"/><rect class="cls-5" x="259.72" y="97.13" width="0.67" height="0.82"/><polygon class="cls-6" points="260.89 96.63 259.22 96.63 259.22 98.45 260.89 98.45 260.89 96.63 260.89 96.63"/><rect class="cls-5" x="252.31" y="100.45" width="0.67" height="0.82"/><polygon class="cls-6" points="253.48 99.95 251.81 99.95 251.81 101.78 253.48 101.78 253.48 99.95 253.48 99.95"/><rect class="cls-5" x="256.02" y="100.45" width="0.67" height="0.82"/><polygon class="cls-6" points="257.18 99.95 255.52 99.95 255.52 101.78 257.18 101.78 257.18 99.95 257.18 99.95"/><rect class="cls-5" x="259.72" y="100.45" width="0.67" height="0.82"/><polygon class="cls-6" points="260.89 99.95 259.22 99.95 259.22 101.78 260.89 101.78 260.89 99.95 260.89 99.95"/><rect class="cls-5" x="252.31" y="103.78" width="0.67" height="0.82"/><polygon class="cls-6" points="253.48 103.28 251.81 103.28 251.81 105.1 253.48 105.1 253.48 103.28 253.48 103.28"/><rect class="cls-5" x="256.02" y="103.78" width="0.67" height="0.82"/><polygon class="cls-6" points="257.18 103.28 255.52 103.28 255.52 105.1 257.18 105.1 257.18 103.28 257.18 103.28"/><rect class="cls-5" x="259.72" y="103.78" width="0.67" height="0.82"/><polygon class="cls-6" points="260.89 103.28 259.22 103.28 259.22 105.1 260.89 105.1 260.89 103.28 260.89 103.28"/><rect class="cls-5" x="252.31" y="107.1" width="0.67" height="0.82"/><polygon class="cls-6" points="253.48 106.6 251.81 106.6 251.81 108.42 253.48 108.42 253.48 106.6 253.48 106.6"/><rect class="cls-5" x="256.02" y="107.1" width="0.67" height="0.82"/><polygon class="cls-6" points="257.18 106.6 255.52 106.6 255.52 108.42 257.18 108.42 257.18 106.6 257.18 106.6"/><rect class="cls-5" x="259.72" y="107.1" width="0.67" height="0.82"/><polygon class="cls-6" points="260.89 106.6 259.22 106.6 259.22 108.42 260.89 108.42 260.89 106.6 260.89 106.6"/><rect class="cls-5" x="252.31" y="110.42" width="0.67" height="0.82"/><polygon class="cls-6" points="253.48 109.92 251.81 109.92 251.81 111.74 253.48 111.74 253.48 109.92 253.48 109.92"/><rect class="cls-5" x="256.02" y="110.42" width="0.67" height="0.82"/><polygon class="cls-6" points="257.18 109.92 255.52 109.92 255.52 111.74 257.18 111.74 257.18 109.92 257.18 109.92"/><rect class="cls-5" x="259.72" y="110.42" width="0.67" height="0.82"/><polygon class="cls-6" points="260.89 109.92 259.22 109.92 259.22 111.74 260.89 111.74 260.89 109.92 260.89 109.92"/><polygon class="cls-7" points="208.55 113.23 198.93 113.23 198.93 54.54 208.55 60.63 208.55 113.23"/><rect class="cls-5" x="201.15" y="63.96" width="5.43" height="0.37"/><polygon class="cls-6" points="207.07 63.46 200.65 63.46 200.65 64.83 207.07 64.83 207.07 63.46 207.07 63.46"/><rect class="cls-5" x="201.15" y="67.36" width="5.43" height="0.37"/><polygon class="cls-6" points="207.07 66.86 200.65 66.86 200.65 68.23 207.07 68.23 207.07 66.86 207.07 66.86"/><rect class="cls-5" x="201.15" y="70.76" width="5.43" height="0.37"/><polygon class="cls-6" points="207.07 70.26 200.65 70.26 200.65 71.63 207.07 71.63 207.07 70.26 207.07 70.26"/><rect class="cls-5" x="201.15" y="74.17" width="5.43" height="0.37"/><polygon class="cls-6" points="207.07 73.67 200.65 73.67 200.65 75.04 207.07 75.04 207.07 73.67 207.07 73.67"/><rect class="cls-5" x="201.15" y="77.57" width="5.43" height="0.37"/><polygon class="cls-6" points="207.07 77.07 200.65 77.07 200.65 78.44 207.07 78.44 207.07 77.07 207.07 77.07"/><rect class="cls-5" x="201.15" y="80.97" width="5.43" height="0.37"/><polygon class="cls-6" points="207.07 80.47 200.65 80.47 200.65 81.84 207.07 81.84 207.07 80.47 207.07 80.47"/><rect class="cls-5" x="201.15" y="84.15" width="5.43" height="0.37"/><polygon class="cls-6" points="207.07 83.65 200.65 83.65 200.65 85.02 207.07 85.02 207.07 83.65 207.07 83.65"/><rect class="cls-5" x="201.15" y="87.55" width="5.43" height="0.37"/><polygon class="cls-6" points="207.07 87.05 200.65 87.05 200.65 88.42 207.07 88.42 207.07 87.05 207.07 87.05"/><rect class="cls-5" x="201.15" y="90.95" width="5.43" height="0.37"/><polygon class="cls-6" points="207.07 90.45 200.65 90.45 200.65 91.82 207.07 91.82 207.07 90.45 207.07 90.45"/><rect class="cls-5" x="201.15" y="94.36" width="5.43" height="0.37"/><polygon class="cls-6" points="207.07 93.86 200.65 93.86 200.65 95.23 207.07 95.23 207.07 93.86 207.07 93.86"/><rect class="cls-5" x="201.15" y="97.76" width="5.43" height="0.37"/><polygon class="cls-6" points="207.07 97.26 200.65 97.26 200.65 98.63 207.07 98.63 207.07 97.26 207.07 97.26"/><rect class="cls-5" x="201.15" y="101.16" width="5.43" height="0.37"/><polygon class="cls-6" points="207.07 100.66 200.65 100.66 200.65 102.03 207.07 102.03 207.07 100.66 207.07 100.66"/><polygon class="cls-7" points="205.79 113.23 214.63 113.23 214.63 65.82 205.79 71.1 205.79 113.23"/><polygon class="cls-4" points="169.68 79.33 169.68 74.03 168.59 74.03 168.59 71.81 167.78 71.81 167.78 71.16 166.06 71.16 166.06 71.81 165.49 71.81 165.49 71.16 163.76 71.16 163.76 71.81 163.35 71.81 163.35 71.16 161.53 71.16 161.53 71.81 160.82 71.81 160.82 74.03 158.09 74.03 158.09 71.81 155.99 71.81 155.99 67.05 155.3 67.05 155.3 71.81 153.66 71.81 153.66 67.05 152.97 67.05 152.97 71.81 150.32 71.81 150.32 74.03 148.95 74.03 148.95 79.33 145.13 79.33 145.13 119.58 173.15 119.58 173.15 79.33 169.68 79.33"/><rect class="cls-5" x="149.45" y="84.48" width="8.57" height="0.54"/><polygon class="cls-6" points="158.49 84 148.97 84 148.97 85.49 158.49 85.49 158.49 84 158.49 84"/><rect class="cls-5" x="160.54" y="84.48" width="8.57" height="0.54"/><polygon class="cls-6" points="169.59 84 160.07 84 160.07 85.49 169.59 85.49 169.59 84 169.59 84"/><rect class="cls-5" x="149.45" y="88.4" width="8.57" height="0.54"/><polygon class="cls-6" points="158.49 87.92 148.97 87.92 148.97 89.41 158.49 89.41 158.49 87.92 158.49 87.92"/><rect class="cls-5" x="160.54" y="88.4" width="8.57" height="0.54"/><polygon class="cls-6" points="169.59 87.92 160.07 87.92 160.07 89.41 169.59 89.41 169.59 87.92 169.59 87.92"/><rect class="cls-5" x="149.45" y="92.31" width="8.57" height="0.55"/><polygon class="cls-6" points="158.49 91.83 148.97 91.83 148.97 93.33 158.49 93.33 158.49 91.83 158.49 91.83"/><rect class="cls-5" x="160.54" y="92.31" width="8.57" height="0.55"/><polygon class="cls-6" points="169.59 91.83 160.07 91.83 160.07 93.33 169.59 93.33 169.59 91.83 169.59 91.83"/><rect class="cls-5" x="149.45" y="96.23" width="8.57" height="0.54"/><polygon class="cls-6" points="158.49 95.75 148.97 95.75 148.97 97.24 158.49 97.24 158.49 95.75 158.49 95.75"/><rect class="cls-5" x="160.54" y="96.23" width="8.57" height="0.54"/><polygon class="cls-6" points="169.59 95.75 160.07 95.75 160.07 97.24 169.59 97.24 169.59 95.75 169.59 95.75"/><rect class="cls-5" x="149.45" y="100.15" width="8.57" height="0.54"/><polygon class="cls-6" points="158.49 99.67 148.97 99.67 148.97 101.16 158.49 101.16 158.49 99.67 158.49 99.67"/><rect class="cls-5" x="160.54" y="100.15" width="8.57" height="0.54"/><polygon class="cls-6" points="169.59 99.67 160.07 99.67 160.07 101.16 169.59 101.16 169.59 99.67 169.59 99.67"/><rect class="cls-5" x="149.45" y="104.07" width="8.57" height="0.54"/><polygon class="cls-6" points="158.49 103.59 148.97 103.59 148.97 105.08 158.49 105.08 158.49 103.59 158.49 103.59"/><rect class="cls-5" x="160.54" y="104.07" width="8.57" height="0.54"/><polygon class="cls-6" points="169.59 103.59 160.07 103.59 160.07 105.08 169.59 105.08 169.59 103.59 169.59 103.59"/><rect class="cls-5" x="149.45" y="107.98" width="8.57" height="0.55"/><polygon class="cls-6" points="158.49 107.5 148.97 107.5 148.97 109 158.49 109 158.49 107.5 158.49 107.5"/><rect class="cls-5" x="160.54" y="107.98" width="8.57" height="0.55"/><polygon class="cls-6" points="169.59 107.5 160.07 107.5 160.07 109 169.59 109 169.59 107.5 169.59 107.5"/><polygon class="cls-7" points="61.38 119.88 61.38 114.06 57.08 111.34 53.09 114.06 53.09 119.88 61.38 119.88"/><rect class="cls-5" x="55.67" y="116.11" width="0.84" height="1.94"/><polygon class="cls-6" points="57.01 115.61 55.17 115.61 55.17 118.55 57.01 118.55 57.01 115.61 57.01 115.61"/><rect class="cls-5" x="57.96" y="116.11" width="0.84" height="1.94"/><polygon class="cls-6" points="59.3 115.61 57.46 115.61 57.46 118.55 59.3 118.55 59.3 115.61 59.3 115.61"/><polygon class="cls-4" points="272.82 92.06 257.83 92.06 257.83 94.92 258.78 94.92 258.78 119.68 272.11 119.68 272.11 94.92 272.82 94.92 272.82 92.06"/><rect class="cls-5" x="262.08" y="96.8" width="0.65" height="0.65"/><polygon class="cls-6" points="263.21 96.32 261.61 96.32 261.61 97.92 263.21 97.92 263.21 96.32 263.21 96.32"/><rect class="cls-5" x="265.21" y="96.8" width="0.65" height="0.65"/><polygon class="cls-6" points="266.34 96.32 264.74 96.32 264.74 97.92 266.34 97.92 266.34 96.32 266.34 96.32"/><rect class="cls-5" x="268.35" y="96.8" width="0.65" height="0.65"/><polygon class="cls-6" points="269.47 96.32 267.87 96.32 267.87 97.92 269.47 97.92 269.47 96.32 269.47 96.32"/><rect class="cls-5" x="262.08" y="99.73" width="0.65" height="0.65"/><polygon class="cls-6" points="263.21 99.26 261.61 99.26 261.61 100.86 263.21 100.86 263.21 99.26 263.21 99.26"/><rect class="cls-5" x="265.21" y="99.73" width="0.65" height="0.65"/><polygon class="cls-6" points="266.34 99.26 264.74 99.26 264.74 100.86 266.34 100.86 266.34 99.26 266.34 99.26"/><rect class="cls-5" x="268.35" y="99.73" width="0.65" height="0.65"/><polygon class="cls-6" points="269.47 99.26 267.87 99.26 267.87 100.86 269.47 100.86 269.47 99.26 269.47 99.26"/><rect class="cls-5" x="262.08" y="102.67" width="0.65" height="0.65"/><polygon class="cls-6" points="263.21 102.19 261.61 102.19 261.61 103.79 263.21 103.79 263.21 102.19 263.21 102.19"/><rect class="cls-5" x="265.21" y="102.67" width="0.65" height="0.65"/><polygon class="cls-6" points="266.34 102.19 264.74 102.19 264.74 103.79 266.34 103.79 266.34 102.19 266.34 102.19"/><rect class="cls-5" x="268.35" y="102.67" width="0.65" height="0.65"/><polygon class="cls-6" points="269.47 102.19 267.87 102.19 267.87 103.79 269.47 103.79 269.47 102.19 269.47 102.19"/><rect class="cls-5" x="262.08" y="105.6" width="0.65" height="0.65"/><polygon class="cls-6" points="263.21 105.13 261.61 105.13 261.61 106.73 263.21 106.73 263.21 105.13 263.21 105.13"/><rect class="cls-5" x="265.21" y="105.6" width="0.65" height="0.65"/><polygon class="cls-6" points="266.34 105.13 264.74 105.13 264.74 106.73 266.34 106.73 266.34 105.13 266.34 105.13"/><rect class="cls-5" x="268.35" y="105.6" width="0.65" height="0.65"/><polygon class="cls-6" points="269.47 105.13 267.87 105.13 267.87 106.73 269.47 106.73 269.47 105.13 269.47 105.13"/><rect class="cls-5" x="262.08" y="108.54" width="0.65" height="0.65"/><polygon class="cls-6" points="263.21 108.06 261.61 108.06 261.61 109.66 263.21 109.66 263.21 108.06 263.21 108.06"/><rect class="cls-5" x="265.21" y="108.54" width="0.65" height="0.65"/><polygon class="cls-6" points="266.34 108.06 264.74 108.06 264.74 109.66 266.34 109.66 266.34 108.06 266.34 108.06"/><rect class="cls-5" x="268.35" y="108.54" width="0.65" height="0.65"/><polygon class="cls-6" points="269.47 108.06 267.87 108.06 267.87 109.66 269.47 109.66 269.47 108.06 269.47 108.06"/><rect class="cls-5" x="262.08" y="111.47" width="0.65" height="0.65"/><polygon class="cls-6" points="263.21 111 261.61 111 261.61 112.6 263.21 112.6 263.21 111 263.21 111"/><rect class="cls-5" x="265.21" y="111.47" width="0.65" height="0.65"/><polygon class="cls-6" points="266.34 111 264.74 111 264.74 112.6 266.34 112.6 266.34 111 266.34 111"/><rect class="cls-5" x="268.35" y="111.47" width="0.65" height="0.65"/><polygon class="cls-6" points="269.47 111 267.87 111 267.87 112.6 269.47 112.6 269.47 111 269.47 111"/><polygon class="cls-4" points="205.55 88.66 212.25 88.66 212.25 84.55 222 84.55 222 88.66 228.21 88.66 228.21 84.55 237.82 84.55 237.76 88.66 244.59 88.66 244.59 119.28 205.55 119.19 205.55 88.66"/><rect class="cls-5" x="212.85" y="91.69" width="2.3" height="1.57"/><path class="cls-6" d="M214.68,92.17v.61h-1.36v-.61h1.36m.94-1h-3.25v2.51h3.25V91.22Z"/><rect class="cls-5" x="219.21" y="91.69" width="2.3" height="1.57"/><path class="cls-6" d="M221,92.17v.61h-1.35v-.61H221m1-1h-3.25v2.51H222V91.22Z"/><rect class="cls-5" x="212.85" y="96.3" width="2.3" height="1.57"/><path class="cls-6" d="M214.68,96.77v.62h-1.36v-.62h1.36m.94-.94h-3.25v2.51h3.25V95.83Z"/><rect class="cls-5" x="219.21" y="96.3" width="2.3" height="1.57"/><path class="cls-6" d="M221,96.77v.62h-1.35v-.62H221m1-.94h-3.25v2.51H222V95.83Z"/><rect class="cls-5" x="212.85" y="100.91" width="2.3" height="1.57"/><path class="cls-6" d="M214.68,101.38V102h-1.36v-.62h1.36m.94-.94h-3.25V103h3.25v-2.51Z"/><rect class="cls-5" x="219.21" y="100.91" width="2.3" height="1.57"/><path class="cls-6" d="M221,101.38V102h-1.35v-.62H221m1-.94h-3.25V103H222v-2.51Z"/><rect class="cls-5" x="212.85" y="105.52" width="2.3" height="1.57"/><path class="cls-6" d="M214.68,106v.62h-1.36V106h1.36m.94-.94h-3.25v2.51h3.25v-2.51Z"/><rect class="cls-5" x="219.21" y="105.52" width="2.3" height="1.57"/><path class="cls-6" d="M221,106v.62h-1.35V106H221m1-.94h-3.25v2.51H222v-2.51Z"/><rect class="cls-5" x="212.85" y="110.13" width="2.3" height="1.57"/><path class="cls-6" d="M214.68,110.6v.62h-1.36v-.62h1.36m.94-.95h-3.25v2.52h3.25v-2.52Z"/><rect class="cls-5" x="219.21" y="110.13" width="2.3" height="1.57"/><path class="cls-6" d="M221,110.6v.62h-1.35v-.62H221m1-.95h-3.25v2.52H222v-2.52Z"/><rect class="cls-5" x="212.85" y="114.74" width="2.3" height="1.57"/><path class="cls-6" d="M214.68,115.21v.62h-1.36v-.62h1.36m.94-.95h-3.25v2.52h3.25v-2.52Z"/><rect class="cls-5" x="219.21" y="114.74" width="2.3" height="1.57"/><path class="cls-6" d="M221,115.21v.62h-1.35v-.62H221m1-.95h-3.25v2.52H222v-2.52Z"/><rect class="cls-5" x="228.68" y="91.69" width="2.3" height="1.57"/><path class="cls-6" d="M230.51,92.17v.61h-1.36v-.61h1.36m1-1h-3.25v2.51h3.25V91.22Z"/><rect class="cls-5" x="235.05" y="91.69" width="2.3" height="1.57"/><path class="cls-6" d="M236.87,92.17v.61h-1.35v-.61h1.35m.95-1h-3.25v2.51h3.25V91.22Z"/><rect class="cls-5" x="228.68" y="96.3" width="2.3" height="1.57"/><path class="cls-6" d="M230.51,96.77v.62h-1.36v-.62h1.36m1-.94h-3.25v2.51h3.25V95.83Z"/><rect class="cls-5" x="235.05" y="96.3" width="2.3" height="1.57"/><path class="cls-6" d="M236.87,96.77v.62h-1.35v-.62h1.35m.95-.94h-3.25v2.51h3.25V95.83Z"/><rect class="cls-5" x="228.68" y="100.91" width="2.3" height="1.57"/><path class="cls-6" d="M230.51,101.38V102h-1.36v-.62h1.36m1-.94h-3.25V103h3.25v-2.51Z"/><rect class="cls-5" x="235.05" y="100.91" width="2.3" height="1.57"/><path class="cls-6" d="M236.87,101.38V102h-1.35v-.62h1.35m.95-.94h-3.25V103h3.25v-2.51Z"/><rect class="cls-5" x="228.68" y="105.52" width="2.3" height="1.57"/><path class="cls-6" d="M230.51,106v.62h-1.36V106h1.36m1-.94h-3.25v2.51h3.25v-2.51Z"/><rect class="cls-5" x="235.05" y="105.52" width="2.3" height="1.57"/><path class="cls-6" d="M236.87,106v.62h-1.35V106h1.35m.95-.94h-3.25v2.51h3.25v-2.51Z"/><rect class="cls-5" x="228.68" y="110.13" width="2.3" height="1.57"/><path class="cls-6" d="M230.51,110.6v.62h-1.36v-.62h1.36m1-.95h-3.25v2.52h3.25v-2.52Z"/><rect class="cls-5" x="235.05" y="110.13" width="2.3" height="1.57"/><path class="cls-6" d="M236.87,110.6v.62h-1.35v-.62h1.35m.95-.95h-3.25v2.52h3.25v-2.52Z"/><rect class="cls-5" x="228.68" y="114.74" width="2.3" height="1.57"/><path class="cls-6" d="M230.51,115.21v.62h-1.36v-.62h1.36m1-.95h-3.25v2.52h3.25v-2.52Z"/><rect class="cls-5" x="235.05" y="114.74" width="2.3" height="1.57"/><path class="cls-6" d="M236.87,115.21v.62h-1.35v-.62h1.35m.95-.95h-3.25v2.52h3.25v-2.52Z"/><polygon class="cls-8" points="81.81 107.74 81.81 104.43 80.41 104.43 80.41 107.14 75.36 104.98 65.35 109.6 65.35 119.48 86.15 119.48 86.15 109.6 81.81 107.74"/><rect class="cls-8" x="74.28" y="112.38" width="2.93" height="4.69"/><rect class="cls-8" x="79.01" y="112.38" width="4.77" height="4.69"/><rect class="cls-8" x="67.71" y="112.38" width="4.77" height="4.69"/><polygon class="cls-7" points="174.08 107.66 174.08 105.17 162 105.17 162 107.66 148.97 107.66 148.97 110.21 150.96 110.21 150.96 119.72 185.11 119.72 185.11 110.21 187.1 110.21 187.1 107.66 174.08 107.66"/><rect class="cls-5" x="155.54" y="113.62" width="2.12" height="3.92"/><path class="cls-6" d="M157.16,114.12V117h-1.11v-2.92h1.11m1-1h-3.11V118h3.11v-4.92Z"/><rect class="cls-5" x="159.43" y="113.62" width="2.11" height="3.92"/><path class="cls-6" d="M161.05,114.12V117h-1.12v-2.92h1.12m1-1h-3.12V118h3.12v-4.92Z"/><rect class="cls-5" x="174.8" y="113.62" width="2.12" height="3.92"/><path class="cls-6" d="M176.41,114.12V117H175.3v-2.92h1.11m1-1H174.3V118h3.11v-4.92Z"/><rect class="cls-5" x="178.69" y="113.62" width="2.11" height="3.92"/><path class="cls-6" d="M180.3,114.12V117h-1.11v-2.92h1.11m1-1h-3.11V118h3.11v-4.92Z"/><rect class="cls-5" x="165.21" y="113.62" width="2.08" height="3.92"/><path class="cls-6" d="M166.79,114.12V117h-1.08v-2.92h1.08m1-1h-3.08V118h3.08v-4.92Z"/><rect class="cls-5" x="169.05" y="113.62" width="2.08" height="3.92"/><path class="cls-6" d="M170.63,114.12V117h-1.08v-2.92h1.08m1-1h-3.08V118h3.08v-4.92Z"/><polygon class="cls-4" points="213.21 101.69 213.21 99.29 209.15 99.29 209.15 95.38 208.63 95.38 208.63 99.29 204.67 99.29 204.67 101.69 191.73 101.69 191.73 104.76 192.75 104.76 192.75 119.62 225.17 119.62 225.17 104.76 226.15 104.76 226.15 101.69 213.21 101.69"/><rect class="cls-9" x="196.42" y="107.08" width="1.97" height="1.97"/><rect class="cls-9" x="196.42" y="110.7" width="1.97" height="1.97"/><rect class="cls-9" x="196.42" y="114.31" width="1.97" height="1.97"/><rect class="cls-9" x="201.03" y="107.08" width="1.97" height="1.97"/><rect class="cls-9" x="201.03" y="110.7" width="1.97" height="1.97"/><rect class="cls-9" x="201.03" y="114.31" width="1.97" height="1.97"/><rect class="cls-9" x="214.87" y="107.08" width="1.97" height="1.97"/><rect class="cls-9" x="214.87" y="110.7" width="1.97" height="1.97"/><rect class="cls-9" x="214.87" y="114.31" width="1.97" height="1.97"/><rect class="cls-9" x="205.65" y="107.08" width="1.97" height="1.97"/><rect class="cls-9" x="205.65" y="110.7" width="1.97" height="1.97"/><rect class="cls-9" x="205.65" y="114.31" width="1.97" height="1.97"/><rect class="cls-9" x="210.26" y="107.08" width="1.97" height="1.97"/><rect class="cls-9" x="210.26" y="110.7" width="1.97" height="1.97"/><rect class="cls-9" x="210.26" y="114.31" width="1.97" height="1.97"/><rect class="cls-9" x="219.49" y="107.08" width="1.97" height="1.97"/><rect class="cls-9" x="219.49" y="110.7" width="1.97" height="1.97"/><rect class="cls-9" x="219.49" y="114.31" width="1.97" height="1.97"/><polygon class="cls-4" points="127.17 97.19 127.17 93.48 123.17 93.48 123.17 92.02 122.28 92.02 122.28 93.48 118.54 93.48 118.54 97.19 112.94 97.19 112.94 93.48 108.83 93.48 108.83 92.02 107.94 92.02 107.94 93.48 104.13 93.48 104.13 97.19 99.12 97.19 99.12 119.29 132.39 119.37 132.39 97.19 127.17 97.19"/><rect class="cls-4" x="104.24" y="100.12" width="2.94" height="2.27"/><rect class="cls-4" x="109.99" y="100.12" width="2.94" height="2.27"/><rect class="cls-4" x="104.24" y="104.29" width="2.94" height="2.27"/><rect class="cls-4" x="109.99" y="104.29" width="2.94" height="2.27"/><rect class="cls-4" x="104.24" y="108.45" width="2.94" height="2.27"/><rect class="cls-4" x="109.99" y="108.45" width="2.94" height="2.27"/><rect class="cls-4" x="104.24" y="112.62" width="2.94" height="2.27"/><rect class="cls-4" x="109.99" y="112.62" width="2.94" height="2.27"/><rect class="cls-4" x="118.54" y="100.12" width="2.94" height="2.27"/><rect class="cls-4" x="124.29" y="100.12" width="2.94" height="2.27"/><rect class="cls-4" x="118.54" y="104.29" width="2.94" height="2.27"/><rect class="cls-4" x="124.29" y="104.29" width="2.94" height="2.27"/><rect class="cls-4" x="118.54" y="108.45" width="2.94" height="2.27"/><rect class="cls-4" x="124.29" y="108.45" width="2.94" height="2.27"/><rect class="cls-4" x="118.54" y="112.62" width="2.94" height="2.27"/><rect class="cls-4" x="124.29" y="112.62" width="2.94" height="2.27"/><path class="cls-4" d="M48.12,119.28v0a1.31,1.31,0,0,0-1.3-1.31h-.07a2.1,2.1,0,0,0-2-1.36,1.91,1.91,0,0,0-.76.15,2.05,2.05,0,0,0-1.48-.63,2.11,2.11,0,0,0-2,1.46h0a1.36,1.36,0,0,0-1.36,1.36,1.59,1.59,0,0,0,.06.38Z"/><path class="cls-4" d="M196.26,119.28s0,0,0,0a1.31,1.31,0,0,0-1.31-1.31h-.07a2.08,2.08,0,0,0-1.95-1.36,1.94,1.94,0,0,0-.76.15,2,2,0,0,0-1.47-.63,2.13,2.13,0,0,0-2,1.46h0a1.35,1.35,0,0,0-1.35,1.36,1.21,1.21,0,0,0,.06.38Z"/><path class="cls-7" d="M97.57,112.62a2.62,2.62,0,0,0-1.51-2.37,3.66,3.66,0,0,0-7.12,0,2.57,2.57,0,0,0-1.57,2.39c0,2.4,2.23,3.79,5,3.8S97.56,115.1,97.57,112.62Z"/><line class="cls-10" x1="92.48" y1="111.36" x2="92.48" y2="119.91"/><line class="cls-10" x1="90.3" y1="113.93" x2="92.35" y2="115.12"/><line class="cls-10" x1="92.68" y1="113.9" x2="94.53" y2="112.38"/><path class="cls-7" d="M137.15,112a2.61,2.61,0,0,0-1.5-2.38,3.66,3.66,0,0,0-7.13,0A2.58,2.58,0,0,0,127,112c0,2.41,2.24,3.8,5,3.8C134.92,115.76,137.15,114.46,137.15,112Z"/><line class="cls-10" x1="132.06" y1="110.73" x2="132.06" y2="119.28"/><line class="cls-10" x1="129.88" y1="113.3" x2="131.93" y2="114.49"/><line class="cls-10" x1="132.26" y1="113.26" x2="134.11" y2="111.74"/><path class="cls-7" d="M146.38,114.72a1.75,1.75,0,0,0-1-1.59,2.45,2.45,0,0,0-4.77,0,1.72,1.72,0,0,0-1,1.6c0,1.61,1.5,2.54,3.37,2.54S146.38,116.38,146.38,114.72Z"/><line class="cls-10" x1="142.97" y1="113.55" x2="142.97" y2="119.28"/><line class="cls-10" x1="141.51" y1="115.27" x2="142.88" y2="116.07"/><line class="cls-10" x1="143.1" y1="115.25" x2="144.34" y2="114.23"/><path class="cls-7" d="M261.81,119.48V119a1.28,1.28,0,0,0-1.28-1.29h-.07a3.5,3.5,0,0,0-6.06-.38h0a1.34,1.34,0,0,0-1.33,1.33,7.18,7.18,0,0,0,.06.81Z"/><path class="cls-7" d="M110.16,119.28v-.07a1.88,1.88,0,0,0-1.88-1.88h-.1a3,3,0,0,0-2.81-2,2.88,2.88,0,0,0-1.1.22,2.93,2.93,0,0,0-2.12-.9,3,3,0,0,0-2.86,2.09h0a2,2,0,0,0-2,2,2,2,0,0,0,.09.55Z"/><path class="cls-3" d="M196.06,44.83a3.29,3.29,0,0,1,1.63,1.07,3.74,3.74,0,0,1,1.48-1.31"/><path class="cls-7" d="M247.35,111.3c0,2.39-1.33,4-3,4s-3-1.66-3-4,1.34-8.35,3-8.35S247.35,108.9,247.35,111.3Z"/><line class="cls-11" x1="244.35" y1="108.1" x2="244.35" y2="119.28"/><path class="cls-7" d="M253.36,112.86c0,1.87-1,3.17-2.33,3.17s-2.34-1.3-2.34-3.17,1.05-6.54,2.34-6.54S253.36,111,253.36,112.86Z"/><line class="cls-11" x1="251.01" y1="110.35" x2="251.01" y2="119.28"/><line class="cls-12" x1="0.75" y1="119.58" x2="276.04" y2="120.28"/></g></g></svg>