<svg xmlns="http://www.w3.org/2000/svg" viewBox="0 0 420 420"><defs><style>.cls-1{fill:#ddd;}.cls-2{fill:#1a1a1a;fill-rule:evenodd;}</style></defs><g id="Layer_5" data-name="Layer 5"><path class="cls-1" d="M291.4,259.34a12,12,0,0,1,7.53-20.72,12.57,12.57,0,0,1,8.57,2.86l.45.39,3.5,3.2a109.45,109.45,0,0,0,3.83-24.31l-2.26.6-.58.13a12.61,12.61,0,0,1-8.92-1.46,12,12,0,0,1,3-21.84c2.36-.64,4.74-1.35,7.14-2.09A109.85,109.85,0,0,0,310,181.81c-5.54.32-11.09.65-16.44,1.24a12,12,0,0,1-10.77-19.23,12.6,12.6,0,0,1,7.76-4.62l.59-.09,7.91-.93a110.27,110.27,0,0,0-17.52-21.67L279,141.88l-.28.53a12.59,12.59,0,0,1-6.93,5.79,12,12,0,0,1-14.6-16.51c1.6-3.33,3.11-6.79,4.58-10.28a108.48,108.48,0,0,0-17.43-8.4c-2.51,4-5,8-7.21,12a12,12,0,0,1-21.91-2.34,12.64,12.64,0,0,1,.71-9s.25-.49.28-.53l3.45-6.31a112,112,0,0,0-28,0l3.45,6.31.27.53a12.65,12.65,0,0,1,.72,9,12,12,0,0,1-21.92,2.34c-2.23-4-4.7-8-7.21-12a109.22,109.22,0,0,0-19.41,9.61c1.66,3.18,3.35,6.32,5.11,9.34a12,12,0,0,1-13.21,17.64,12.57,12.57,0,0,1-7.38-5.22l-.32-.5-3.51-5.95A110.76,110.76,0,0,0,110,161.65l10.84.39.6,0a12.61,12.61,0,0,1,8.11,4,12,12,0,0,1-9.18,20c-6.72-.19-13.7,0-20.61.19a108.29,108.29,0,0,0-3.28,16.82c5.07,1.71,10.14,3.4,15.14,4.81a12,12,0,0,1,2.79,21.86,12.64,12.64,0,0,1-8.93,1.39l-.59-.14-8.38-2.3A109.12,109.12,0,0,0,103.79,257l6-5.44.46-.39a12.63,12.63,0,0,1,8.6-2.78,12,12,0,0,1,7.35,20.78c-3.47,3.17-6.89,6.58-10.29,10A110.73,110.73,0,0,0,126.53,292c5.79-3.67,11.68-7.31,17.12-11.15a12,12,0,0,1,18.73,11.62,12.66,12.66,0,0,1-4.55,7.8l-.48.36-10.82,7.76A109.45,109.45,0,0,0,177,321.84l-.63-12c0-.05,0-.6,0-.6a12.58,12.58,0,0,1,3.26-8.43,12,12,0,0,1,20.76,7.39c.34,5.69,1,11.55,1.65,17.39,1.17,0,2.36.06,3.54.06a111.05,111.05,0,0,0,16.62-1.25c.4-5.69.8-11.38.9-16.91a12,12,0,0,1,20.45-8.23,12.62,12.62,0,0,1,3.59,8.29s0,.55,0,.6l-.11,9.39a109.6,109.6,0,0,0,25.65-14.79l-6.89-4.53-.49-.34a12.59,12.59,0,0,1-4.87-7.62,12,12,0,0,1,18.25-12.37c3.86,2.51,7.93,4.9,12,7.27a109.85,109.85,0,0,0,10.73-15.78C298.15,265.9,294.8,262.5,291.4,259.34Z"/></g><g id="icon"><path class="cls-2" d="M181.38,84a2,2,0,0,1,3.82,1l-1.83,6.81L195,113.18l.27.53a12.65,12.65,0,0,1,.72,9,12,12,0,0,1-21.92,2.34c-4.67-8.41-10.38-16.85-15.33-25.2a12.76,12.76,0,0,1-1.27-9.65l6.91-25.77a12.74,12.74,0,0,1,8.26-8.91l10-2.66.2,0c3.45-9.69,12.23-16.8,22.75-16.8s19.31,7.11,22.75,16.8l.2,0,10,2.66a12.74,12.74,0,0,1,8.26,8.91l6.9,25.77a12.71,12.71,0,0,1-1.27,9.65c-4.94,8.35-10.65,16.79-15.33,25.2a12,12,0,0,1-21.91-2.34,12.64,12.64,0,0,1,.71-9s.25-.49.28-.53l11.65-21.3L226,85.07a2,2,0,0,1,3.81-1l2,7.57a2,2,0,0,1-.24,1.58c-3.8,6.93-8.91,15.19-12.12,22.19h0a8.67,8.67,0,0,0-.53,6.19,8.09,8.09,0,0,0,14.71,1.53c5.22-8.3,10.24-16.84,15.35-25.23a8.7,8.7,0,0,0,.87-6.64L243,65.4a8.77,8.77,0,0,0-5.61-6.1l-7.85-2.09a27.71,27.71,0,0,1,.43,4.86c0,13.63-10.22,26.05-24.33,26.05S181.27,75.7,181.27,62.07a27.72,27.72,0,0,1,.42-4.86l-7.84,2.09a8.75,8.75,0,0,0-5.61,6.1l-6.92,25.83a8.66,8.66,0,0,0,.87,6.64c5.11,8.39,10.13,16.93,15.34,25.23a8.1,8.1,0,0,0,14.72-1.53,8.72,8.72,0,0,0-.53-6.19h0c-3.21-7-8.33-15.26-12.12-22.19a2,2,0,0,1-.25-1.58l2-7.57ZM205.59,40c-11.93,0-20.37,10.64-20.37,22.09s8.44,22.09,20.37,22.09S226,73.52,226,62.07,217.52,40,205.59,40Z"/><path class="cls-2" d="M172.57,34.23a8.68,8.68,0,1,1-3.32-17,187.57,187.57,0,0,1,72.69.09,8.68,8.68,0,1,1-3.33,17,170.92,170.92,0,0,0-66-.08Zm-.75-3.88a175,175,0,0,1,67.55.08,4.73,4.73,0,0,0,1.81-9.28A183.68,183.68,0,0,0,170,21.07a4.73,4.73,0,1,0,1.81,9.28Z"/><path class="cls-2" d="M88.87,158.88a2,2,0,0,1,2.83-2.76l4.92,5,24.26.87.6,0a12.61,12.61,0,0,1,8.11,4,12,12,0,0,1-9.18,20c-9.62-.28-19.79.32-29.5.3A12.67,12.67,0,0,1,82,182.56l-18.62-19.1a12.7,12.7,0,0,1-3.44-11.66l2.8-9.93c0-.07,0-.13.07-.2-6.57-7.91-8.19-19.09-2.82-28.14s16-13,26.07-11a.67.67,0,0,1,.14-.15l7.38-7.22a12.76,12.76,0,0,1,11.89-2.55l25.68,7.23a12.77,12.77,0,0,1,7.64,6c4.65,8.52,9,17.74,13.83,26.05a12,12,0,0,1-13.21,17.64,12.57,12.57,0,0,1-7.38-5.22l-.32-.5L119.33,123l-6.79-1.92a2,2,0,1,1,1.07-3.8l7.54,2.13a1.93,1.93,0,0,1,1.23,1c4,6.8,8.51,15.42,12.88,21.76h0a8.76,8.76,0,0,0,5.06,3.62,8.1,8.1,0,0,0,8.83-11.87c-4.47-8.73-9.25-17.41-13.84-26.08a8.68,8.68,0,0,0-5.27-4.14l-25.73-7.25a8.77,8.77,0,0,0-8.12,1.7l-5.81,5.67a28.18,28.18,0,0,1,4.4,2.12c11.72,7,17.17,22.09,10,34.22s-23.1,14.57-34.82,7.6a27.33,27.33,0,0,1-4-2.85l-2.21,7.81a8.79,8.79,0,0,0,2.38,7.95L84.8,179.8A8.66,8.66,0,0,0,91,182.45c9.81-.11,19.72-.06,29.52-.3a8.1,8.1,0,0,0,6.21-13.43,8.71,8.71,0,0,0-5.6-2.71h0c-7.65-.82-17.37-.64-25.27-.92a1.93,1.93,0,0,1-1.47-.6l-5.47-5.61ZM63.36,115.56c-6.09,10.25-1.26,22.94,8.58,28.79s23.3,4,29.4-6.22,1.27-22.94-8.58-28.8S69.46,105.3,63.36,115.56Z"/><path class="cls-2" d="M41.55,141a8.68,8.68,0,1,1-16.34-5.85A187.37,187.37,0,0,1,62.42,72.71,8.68,8.68,0,1,1,75.36,84.28,170.75,170.75,0,0,0,41.55,141Zm-3.72-1.33a174.51,174.51,0,0,1,34.59-58,4.72,4.72,0,1,0-7-6.29,183.42,183.42,0,0,0-36.44,61.13,4.73,4.73,0,1,0,8.9,3.19Z"/><path class="cls-2" d="M176.06,342a2,2,0,0,1-3-2.57l4.6-5.35-1.27-24.24c0-.05,0-.6,0-.6a12.58,12.58,0,0,1,3.26-8.43,12,12,0,0,1,20.76,7.39c.57,9.61,2,19.69,2.88,29.35a12.68,12.68,0,0,1-3,9.25L182.85,367a12.75,12.75,0,0,1-11.31,4.45L161.4,369.5l-.2-.05c-7.3,7.24-18.31,9.84-27.78,5.28s-14.32-14.78-13.22-25l-.16-.13-7.83-6.73a12.71,12.71,0,0,1-3.58-11.61l5-26.21a12.68,12.68,0,0,1,5.33-8.15c8.07-5.38,16.88-10.51,24.74-16.06a12,12,0,0,1,18.73,11.62,12.66,12.66,0,0,1-4.55,7.8l-.48.36-19.74,14.14-1.31,6.93a2,2,0,1,1-3.88-.73l1.46-7.7a1.91,1.91,0,0,1,.9-1.31c6.42-4.61,14.62-9.83,20.54-14.74h0a8.74,8.74,0,0,0,3.17-5.36,8.09,8.09,0,0,0-12.6-7.75c-8.3,5.22-16.53,10.73-24.77,16.07a8.68,8.68,0,0,0-3.66,5.61l-5,26.27A8.83,8.83,0,0,0,114.9,340l6.16,5.29a28.88,28.88,0,0,1,1.73-4.57c5.91-12.28,20.5-19,33.21-12.92s16.54,21.73,10.63,34a28.58,28.58,0,0,1-2.49,4.19l8,1.52a8.81,8.81,0,0,0,7.71-3.07l17.43-20.27a8.71,8.71,0,0,0,2.1-6.37c-1-9.77-1.79-19.64-2.89-29.38a8,8,0,0,0-2.53-5.29,8.09,8.09,0,0,0-11.39.28,8.71,8.71,0,0,0-2.21,5.82h0c-.15,7.7.88,17.36,1.3,25.25a2,2,0,0,1-.47,1.52l-5.1,5.94Zm-40.93,29.21c10.75,5.17,23-.75,27.94-11.07s2-23.57-8.78-28.74-23,.75-27.94,11.08S124.38,366,135.13,371.16Z"/><path class="cls-2" d="M162.39,390.66A8.68,8.68,0,1,1,158,407.45a187.34,187.34,0,0,1-65.46-31.59A8.68,8.68,0,0,1,102.92,362a170.62,170.62,0,0,0,59.47,28.71Zm-1,3.82a174.62,174.62,0,0,1-60.83-29.36,4.73,4.73,0,1,0-5.66,7.58A183.78,183.78,0,0,0,159,403.63a4.73,4.73,0,0,0,2.39-9.15Z"/><path class="cls-2" d="M84.64,271.6a2,2,0,0,1,.11-4l7,.2,18-16.27.46-.39a12.63,12.63,0,0,1,8.6-2.78,12,12,0,0,1,7.35,20.78c-7.11,6.5-14,14-21,20.74a12.67,12.67,0,0,1-9.09,3.47l-26.67-.76a12.71,12.71,0,0,1-10.58-6L54,277.58l-.09-.19c-10.22-1.1-19.17-8-21.6-18.24s2.45-20.43,11.08-26a1.33,1.33,0,0,1,0-.2l.28-10.32a12.72,12.72,0,0,1,6.76-10.1l23.47-12.68a12.71,12.71,0,0,1,9.68-1c9.27,2.87,18.8,6.48,28.07,9.08a12,12,0,0,1,2.79,21.86,12.64,12.64,0,0,1-8.93,1.39l-.59-.14-23.41-6.42L75.31,228a2,2,0,1,1-1.87-3.47l6.89-3.73a2,2,0,0,1,1.59-.12c7.62,2.09,16.84,5.15,24.39,6.66h0a8.72,8.72,0,0,0,6.15-.92,8.1,8.1,0,0,0-1.92-14.67c-9.28-3.15-18.75-6.06-28.09-9.1a8.73,8.73,0,0,0-6.66.69L52.26,216a8.78,8.78,0,0,0-4.64,6.87L47.4,231A27,27,0,0,1,52,229.46c13.26-3.15,27.7,3.91,31,17.64s-6.45,26.54-19.72,29.69a27,27,0,0,1-4.83.71l3.85,7.15a8.8,8.8,0,0,0,7.24,4.05l26.73.75a8.65,8.65,0,0,0,6.26-2.38c7-6.91,14.12-13.77,21-20.76a8.1,8.1,0,0,0-4.88-14,8.63,8.63,0,0,0-5.91,2h0c-6.07,4.74-12.92,11.62-18.79,16.92a2,2,0,0,1-1.47.6l-7.83-.22ZM36.17,258.23c2.76,11.61,15,17.36,26.2,14.71S81.91,259.62,79.15,248s-15.06-17.36-26.21-14.71S33.41,246.63,36.17,258.23Z"/><path class="cls-2" d="M38.21,291.69a8.68,8.68,0,0,1-15.81,7.17A187.3,187.3,0,0,1,5.67,228.13,8.68,8.68,0,1,1,23,227.42a170.93,170.93,0,0,0,15.19,64.27Zm-3.6,1.63a174.7,174.7,0,0,1-15.54-65.74,4.73,4.73,0,0,0-9.45.39A183.65,183.65,0,0,0,26,297.23a4.73,4.73,0,0,0,8.61-3.91Z"/><path class="cls-2" d="M291.55,317.47a2,2,0,0,1-3.85.9l-1.59-6.87-20.29-13.33-.49-.34a12.59,12.59,0,0,1-4.87-7.62,12,12,0,0,1,18.25-12.37c8.07,5.24,17.08,10,25.36,15.05a12.72,12.72,0,0,1,5.66,7.92l6,26a12.73,12.73,0,0,1-3.1,11.75l-7.56,7-.15.13c1.51,10.17-2.91,20.58-12.19,25.52s-20.38,2.8-28-4.14l-.2,0-10.06,2.34a12.73,12.73,0,0,1-11.48-4L224.83,346a12.7,12.7,0,0,1-3.41-9.11c.44-9.7,1.51-19.83,1.69-29.45a12,12,0,0,1,20.45-8.23,12.62,12.62,0,0,1,3.59,8.29s0,.55,0,.6l-.29,24.27,4.81,5.16a2,2,0,1,1-2.89,2.69l-5.34-5.72a2,2,0,0,1-.52-1.51c.09-7.9.72-17.59.27-25.28h0a8.69,8.69,0,0,0-2.45-5.72,8.08,8.08,0,0,0-11.39.18,8,8,0,0,0-2.31,5.39c-.71,9.78-1.12,19.67-1.7,29.47a8.7,8.7,0,0,0,2.36,6.28L246,362.86a8.8,8.8,0,0,0,7.82,2.75l7.91-1.84a27.88,27.88,0,0,1-2.66-4.09c-6.41-12-3.22-27.8,9.23-34.42s27.31-.48,33.72,11.56a28.68,28.68,0,0,1,1.91,4.49l5.94-5.53a8.8,8.8,0,0,0,2.08-8l-6-26.05a8.66,8.66,0,0,0-3.88-5.45c-8.45-5-16.9-10.18-25.4-15.06a8.1,8.1,0,0,0-12.27,8.26,8.72,8.72,0,0,0,3.37,5.22h0c6.13,4.67,14.52,9.56,21.13,13.9a1.94,1.94,0,0,1,.95,1.27l1.77,7.63Zm-.67,50.28c10.53-5.61,13-19,7.6-29.07s-17.83-15.54-28.36-9.93-13,19-7.6,29.07S280.35,373.35,290.88,367.75Z"/><path class="cls-2" d="M322.73,357.31a8.68,8.68,0,0,1,10.94,13.48,187.66,187.66,0,0,1-64.2,34.08,8.68,8.68,0,1,1-5.07-16.61,171.15,171.15,0,0,0,58.33-30.95Zm2.49,3.07A174.5,174.5,0,0,1,265.55,392a4.73,4.73,0,0,0,2.76,9,183.78,183.78,0,0,0,62.87-33.37,4.73,4.73,0,0,0-6-7.34Z"/><path class="cls-2" d="M294.81,113.89a2,2,0,0,1,1.38,3.7l-6.61,2.46L279,141.88l-.28.53a12.59,12.59,0,0,1-6.93,5.79,12,12,0,0,1-14.6-16.51c4.16-8.68,7.74-18.22,11.69-27.09A12.7,12.7,0,0,1,276,98l25-9.28a12.73,12.73,0,0,1,12,1.58l8,6.6.15.14c9.89-2.8,20.78.25,26.86,8.83s5.38,19.86-.53,28.27c0,.06.05.12.08.19l3.6,9.68a12.72,12.72,0,0,1-2.49,11.89l-17,20.55A12.72,12.72,0,0,1,323,181c-9.67.8-19.85,1-29.42,2.08a12,12,0,0,1-10.77-19.23,12.6,12.6,0,0,1,7.76-4.62l.59-.09,24.12-2.82,4.5-5.43a2,2,0,0,1,3,2.52l-5,6a2,2,0,0,1-1.42.72c-7.85.91-17.55,1.52-25.12,3h0a8.67,8.67,0,0,0-5.35,3.16,8.09,8.09,0,0,0,7.27,12.88c9.78-.55,19.66-1.4,29.45-2.08a8.66,8.66,0,0,0,5.92-3.14l17.06-20.59a8.78,8.78,0,0,0,1.73-8.11l-2.83-7.6a27.81,27.81,0,0,1-3.72,3.16c-11.12,7.89-27.16,6.74-35.32-4.77s-3.95-27,7.16-34.91a28.67,28.67,0,0,1,4.22-2.47l-6.25-5.19a8.82,8.82,0,0,0-8.23-1l-25.06,9.31a8.67,8.67,0,0,0-4.92,4.55c-3.88,9-7.94,18.05-11.69,27.11a8,8,0,0,0-.35,5.86,8.1,8.1,0,0,0,10.11,5.26,8.7,8.7,0,0,0,4.75-4h0c3.85-6.67,7.62-15.62,11.08-22.73a2,2,0,0,1,1.14-1.1l7.35-2.73Zm49.95-5.75c-6.91-9.73-20.46-10.46-29.81-3.83S301.82,124,308.72,133.7s20.47,10.46,29.81,3.83S351.66,117.86,344.76,108.14Z"/><path class="cls-2" d="M330.34,77.88a8.68,8.68,0,0,1,12-12.57,187.35,187.35,0,0,1,42,59.33,8.67,8.67,0,1,1-15.81,7.14,171,171,0,0,0-38.15-53.9ZM333.07,75a174.52,174.52,0,0,1,39,55.14,4.73,4.73,0,1,0,8.61-3.9,183.43,183.43,0,0,0-41.12-58.09A4.73,4.73,0,0,0,333.07,75Z"/><path class="cls-2" d="M344.57,215.09a2,2,0,1,1-1.9,3.46l-6.18-3.4L313,221.36l-.58.13a12.61,12.61,0,0,1-8.92-1.46,12,12,0,0,1,3-21.84c9.28-2.52,18.85-6,28.14-8.84a12.69,12.69,0,0,1,9.67,1.08l23.36,12.88a12.71,12.71,0,0,1,6.67,10.16l.2,10.32a1.48,1.48,0,0,1,0,.21c8.59,5.66,13.38,15.9,10.86,26.11s-11.53,17-21.76,18.05l-.09.19-5,9a12.73,12.73,0,0,1-10.64,5.88l-26.67.53a12.77,12.77,0,0,1-9.06-3.55c-6.92-6.8-13.74-14.37-20.79-20.92a12,12,0,0,1,7.53-20.72,12.57,12.57,0,0,1,8.57,2.86l.45.39,17.89,16.42,7.05-.14a2,2,0,1,1,.07,4l-7.83.15a1.92,1.92,0,0,1-1.47-.61c-5.82-5.34-12.61-12.29-18.64-17.09h0a8.7,8.7,0,0,0-5.89-2,8.09,8.09,0,0,0-5,13.92c6.8,7,13.9,14,20.81,20.94a8.73,8.73,0,0,0,6.24,2.44l26.73-.53a8.82,8.82,0,0,0,7.28-4l3.91-7.12a27.2,27.2,0,0,1-4.83-.75c-13.23-3.27-22.84-16.16-19.45-29.86S352.7,217,365.94,220.25a28.22,28.22,0,0,1,4.62,1.57l-.15-8.11a8.8,8.8,0,0,0-4.59-6.91L342.4,193.89a8.67,8.67,0,0,0-6.65-.75c-9.36,3-18.86,5.78-28.17,8.85a8.1,8.1,0,0,0-2.05,14.65,8.67,8.67,0,0,0,6.15,1h0c7.56-1.43,16.8-4.42,24.45-6.44a2,2,0,0,1,1.58.14l6.86,3.78Zm37,34.07c2.86-11.58-5.44-22.33-16.56-25.07s-23.47,2.9-26.33,14.48,5.44,22.32,16.56,25.07S378.69,260.74,381.55,249.16Z"/><path class="cls-2" d="M395.05,218.48a8.68,8.68,0,1,1,17.33.86,187.06,187.06,0,0,1-17.5,70.55,8.68,8.68,0,1,1-15.74-7.32,170.88,170.88,0,0,0,15.91-64.09Zm3.94.2a174.41,174.41,0,0,1-16.27,65.56,4.72,4.72,0,1,0,8.57,4,183.8,183.8,0,0,0,17.15-69.08,4.73,4.73,0,0,0-9.45-.46Z"/></g></svg>