<svg xmlns="http://www.w3.org/2000/svg" viewBox="0 0 413.16 291.54"><defs><style>.cls-1{fill:#fff;}</style></defs><g id="Layer_2" data-name="Layer 2"><g id="white"><path class="cls-1" d="M0,173.59C16.83,157.71,32.89,142,49.56,127c20.17-18.2,41.89-34.34,65.86-47.39C148,61.82,182.5,52.68,219.67,54.87c8.43.5,16.78,2.24,25.17,3.41l4.33.64V0H297V5.25c0,22.33.06,44.65-.08,67,0,3,.79,4.7,3.6,6.13,35.32,18,65,43.2,91.93,71.88,6.27,6.67,12.38,13.5,18.71,20.12,2,2.12,2.95,3.78.5,6.25-26,26.3-52.21,52.4-83.13,73.11C299,269.53,267.12,284,231.68,289.47c-34.21,5.25-67.2.35-99-13.09-27.91-11.8-52.16-29.23-74.58-49.26C38.73,209.83,19.88,192,0,173.59Zm255.76-69.67c-1.59-1-2.38-1.57-3.19-2.09-18.83-12-39.31-16.19-61.1-11.48-45.41,9.81-73.21,52.73-64.57,98.93a82.49,82.49,0,0,0,106.61,63.57c34.37-11.07,57.29-43.67,57.37-82.11.11-53.32,0-106.64,0-160V6.14H255.76Z"/><path class="cls-1" d="M254.52,167.76c4.92,15.12-5,36.69-21.35,46.88-18.8,11.72-42.61,9.09-58.71-6.47-15.76-15.25-19.11-40.79-8.24-60.19,10.22-18.25,32.89-26.85,47.66-22.94-7.56,13.33-9,26.4,2.43,38.4S240.83,174.9,254.52,167.76Z"/></g></g></svg>