<?xml version="1.0" encoding="utf-8"?>
<!-- Generator: Adobe Illustrator 25.1.0, SVG Export Plug-In . SVG Version: 6.00 Build 0)  -->
<svg version="1.1" id="Layer_1" xmlns="http://www.w3.org/2000/svg" xmlns:xlink="http://www.w3.org/1999/xlink" x="0px" y="0px"
	 viewBox="0 0 18.1 25" style="enable-background:new 0 0 18.1 25;" xml:space="preserve">
<style type="text/css">
	.st0{fill:#4285F4;}
	.st1{fill:url(#Path_7_);}
	.st2{fill:#F1F1F1;}
	.st3{fill:#A1C2FA;}
	.st4{fill:#FFFFFF;fill-opacity:0.2;}
	.st5{fill:#1A237E;fill-opacity:0.2;}
	.st6{fill:#1A237E;fill-opacity:0.1;}
	.st7{fill:url(#Path_11_);}
</style>
<g id="Page-1">
	<g id="Consumer-Apps-Docs-Large-VD-R8" transform="translate(-451.000000, -463.000000)">
		<g id="Hero" transform="translate(0.000000, 63.000000)">
			<g id="Personal" transform="translate(277.000000, 309.000000)">
				<g id="Docs-icon" transform="translate(174.000000, 91.000000)">
					<g id="Group_1_">
						<g id="Clipped">
							<g id="SVGID_1_">
							</g>
							<path id="Path" class="st0" d="M11.3,0H1.7C0.8,0,0,0.8,0,1.7v21.6C0,24.2,0.8,25,1.7,25h14.7c0.9,0,1.7-0.8,1.7-1.7V6.8
								l-4-2.8L11.3,0z"/>
						</g>
						<g id="Clipped_1_">
							<g id="SVGID_2_">
							</g>
							
								<linearGradient id="Path_7_" gradientUnits="userSpaceOnUse" x1="-1771.5111" y1="111.3184" x2="-1771.5111" y2="111.67" gradientTransform="matrix(16.3362 0 0 16.4273 28954.7129 -1821.8113)">
								<stop  offset="0" style="stop-color:#1A237E;stop-opacity:0.2"/>
								<stop  offset="1" style="stop-color:#1A237E;stop-opacity:2.000000e-02"/>
							</linearGradient>
							<polygon id="Path_1_" class="st1" points="11.8,6.3 18.1,12.6 18.1,6.8 							"/>
						</g>
						<g id="Clipped_2_">
							<g id="SVGID_3_">
							</g>
							<path id="Shape" class="st2" d="M4.5,18.2h9V17h-9V18.2z M4.5,20.5h6.8v-1.1H4.5V20.5z M4.5,12.5v1.1h9v-1.1H4.5z M4.5,15.9
								h9v-1.1h-9V15.9z"/>
						</g>
						<g id="Clipped_3_">
							<g id="SVGID_4_">
							</g>
							<g id="Group">
								<g transform="translate(26.437500, -2.954545)">
									<path id="Path_2_" class="st3" d="M-15.1,3v5.1c0,0.9,0.8,1.7,1.7,1.7h5.1L-15.1,3z"/>
								</g>
							</g>
						</g>
						<g id="Clipped_4_">
							<g id="SVGID_5_">
							</g>
							<path id="Path_3_" class="st4" d="M1.7,0C0.8,0,0,0.8,0,1.7v0.1c0-0.9,0.8-1.7,1.7-1.7h9.6V0H1.7z"/>
						</g>
						<g id="Clipped_5_">
							<g id="SVGID_6_">
							</g>
							<path id="Path_4_" class="st5" d="M16.4,24.9H1.7c-0.9,0-1.7-0.8-1.7-1.7v0.1C0,24.2,0.8,25,1.7,25h14.7
								c0.9,0,1.7-0.8,1.7-1.7v-0.1C18.1,24.1,17.3,24.9,16.4,24.9z"/>
						</g>
						<g id="Clipped_6_">
							<g id="SVGID_7_">
							</g>
							<path id="Path_5_" class="st6" d="M13,6.8c-0.9,0-1.7-0.8-1.7-1.7v0.1c0,1,0.8,1.8,1.7,1.8h5.1V6.8H13z"/>
						</g>
					</g>
					
						<radialGradient id="Path_11_" cx="-1838.1144" cy="73.2164" r="0.8577" gradientTransform="matrix(33.9846 0 0 33.9846 62468.1719 -2487.5444)" gradientUnits="userSpaceOnUse">
						<stop  offset="0" style="stop-color:#FFFFFF;stop-opacity:0.1"/>
						<stop  offset="1" style="stop-color:#FFFFFF;stop-opacity:0"/>
					</radialGradient>
					<path id="Path_6_" class="st7" d="M11.3,0H1.7C0.8,0,0,0.8,0,1.7v21.6C0,24.2,0.8,25,1.7,25h14.7c0.9,0,1.7-0.8,1.7-1.7V6.8
						L11.3,0z"/>
				</g>
			</g>
		</g>
	</g>
</g>
</svg>
