<?xml version="1.0" encoding="utf-8"?>
<!-- Generator: Adobe Illustrator 25.1.0, SVG Export Plug-In . SVG Version: 6.00 Build 0)  -->
<svg version="1.1" id="Layer_1" xmlns="http://www.w3.org/2000/svg" x="0px" y="0px"
     viewBox="0 0 18.2 25" style="enable-background:new 0 0 18.2 25;" xml:space="preserve">
<style type="text/css">
	.st0{filter:url(#Adobe_OpacityMaskFilter);}
	.st1{fill-rule:evenodd;clip-rule:evenodd;fill:#FFFFFF;}
	.st2{mask:url(#mask-2_1_);fill:#0F9D58;}
	.st3{filter:url(#Adobe_OpacityMaskFilter_1_);}
	.st4{mask:url(#mask-4_1_);fill:#F1F1F1;}
	.st5{filter:url(#Adobe_OpacityMaskFilter_2_);}
	.st6{mask:url(#mask-6_1_);fill:url(#Path_7_);}
	.st7{filter:url(#Adobe_OpacityMaskFilter_3_);}
	.st8{mask:url(#mask-9_1_);}
	.st9{fill:#87CEAC;}
	.st10{filter:url(#Adobe_OpacityMaskFilter_4_);}
	.st11{mask:url(#mask-11_1_);fill:#FFFFFF;fill-opacity:0.2;}
	.st12{filter:url(#Adobe_OpacityMaskFilter_5_);}
	.st13{mask:url(#mask-13_1_);fill:#263238;fill-opacity:0.2;}
	.st14{filter:url(#Adobe_OpacityMaskFilter_6_);}
	.st15{mask:url(#mask-15_1_);fill:#263238;fill-opacity:0.1;}
	.st16{fill:url(#Path_11_);}
</style>
<g id="Page-1">
	<g id="Consumer-Apps-Sheets-Large-VD-R8-" transform="translate(-451.000000, -451.000000)">
		<g id="Hero" transform="translate(0.000000, 63.000000)">
			<g id="Personal" transform="translate(277.000000, 299.000000)">
				<g id="Sheets-icon" transform="translate(174.833333, 89.958333)">
					<g id="Group_1_">
						<g id="Clipped">
							<g id="SVGID_1_">
							</g>
							<defs>
								<filter id="Adobe_OpacityMaskFilter" filterUnits="userSpaceOnUse" x="-0.8" y="-1" width="18.2" height="25">
									<feColorMatrix  type="matrix" values="1 0 0 0 0  0 1 0 0 0  0 0 1 0 0  0 0 0 1 0"/>
								</filter>
							</defs>
							<mask maskUnits="userSpaceOnUse" x="-0.8" y="-1" width="18.2" height="25" id="mask-2_1_">
								<g class="st0">
									<path id="path-1_1_" class="st1" d="M10.5-1H0.9c-0.9,0-1.7,0.8-1.7,1.7v21.6c0,0.9,0.8,1.7,1.7,1.7h14.8
										c0.9,0,1.7-0.8,1.7-1.7V5.9L10.5-1z"/>
								</g>
							</mask>
							<path id="Path" class="st2" d="M10.5-1H0.9c-0.9,0-1.7,0.8-1.7,1.7v21.6c0,0.9,0.8,1.7,1.7,1.7h14.8c0.9,0,1.7-0.8,1.7-1.7
								V5.9l-4-2.8L10.5-1z"/>
						</g>
						<g id="Clipped_1_">
							<g id="SVGID_2_">
							</g>
							<defs>
								<filter id="Adobe_OpacityMaskFilter_1_" filterUnits="userSpaceOnUse" x="3.7" y="11.3" width="9.1" height="8.2">
									<feColorMatrix  type="matrix" values="1 0 0 0 0  0 1 0 0 0  0 0 1 0 0  0 0 0 1 0"/>
								</filter>
							</defs>
							<mask maskUnits="userSpaceOnUse" x="3.7" y="11.3" width="9.1" height="8.2" id="mask-4_1_">
								<g class="st3">
									<path id="path-3_1_" class="st1" d="M10.5-1H0.9c-0.9,0-1.7,0.8-1.7,1.7v21.6c0,0.9,0.8,1.7,1.7,1.7h14.8
										c0.9,0,1.7-0.8,1.7-1.7V5.9L10.5-1z"/>
								</g>
							</mask>
							<path id="Shape" class="st4" d="M3.7,11.3v8.2h9.1v-8.2H3.7z M7.7,18.4H4.8v-1.4h2.8V18.4z M7.7,16.1H4.8v-1.4h2.8V16.1z
								 M7.7,13.8H4.8v-1.4h2.8V13.8z M11.7,18.4H8.8v-1.4h2.8V18.4z M11.7,16.1H8.8v-1.4h2.8V16.1z M11.7,13.8H8.8v-1.4h2.8V13.8z"
								/>
						</g>
						<g id="Clipped_2_">
							<g id="SVGID_3_">
							</g>
							<defs>
								<filter id="Adobe_OpacityMaskFilter_2_" filterUnits="userSpaceOnUse" x="11" y="5.4" width="6.3" height="6.3">
									<feColorMatrix  type="matrix" values="1 0 0 0 0  0 1 0 0 0  0 0 1 0 0  0 0 0 1 0"/>
								</filter>
							</defs>
							<mask maskUnits="userSpaceOnUse" x="11" y="5.4" width="6.3" height="6.3" id="mask-6_1_">
								<g class="st5">
									<path id="path-5_1_" class="st1" d="M10.5-1H0.9c-0.9,0-1.7,0.8-1.7,1.7v21.6c0,0.9,0.8,1.7,1.7,1.7h14.8
										c0.9,0,1.7-0.8,1.7-1.7V5.9L10.5-1z"/>
								</g>
							</mask>

								<linearGradient id="Path_7_" gradientUnits="userSpaceOnUse" x1="-880.0161" y1="471.8466" x2="-880.0161" y2="471.4954" gradientTransform="matrix(16.452 0 0 -16.4483 14492.2393 7766.9932)">
								<stop  offset="0" style="stop-color:#263238;stop-opacity:0.2"/>
								<stop  offset="1" style="stop-color:#263238;stop-opacity:2.000000e-02"/>
							</linearGradient>
							<polygon id="Path_1_" class="st6" points="11,5.4 17.3,11.7 17.3,5.9 							"/>
						</g>
						<g id="Clipped_3_">
							<g id="SVGID_4_">
							</g>
							<defs>
								<filter id="Adobe_OpacityMaskFilter_3_" filterUnits="userSpaceOnUse" x="10.5" y="-1" width="6.8" height="6.8">
									<feColorMatrix  type="matrix" values="1 0 0 0 0  0 1 0 0 0  0 0 1 0 0  0 0 0 1 0"/>
								</filter>
							</defs>
							<mask maskUnits="userSpaceOnUse" x="10.5" y="-1" width="6.8" height="6.8" id="mask-9_1_">
								<g class="st7">
									<path id="path-8_1_" class="st1" d="M10.5-1H0.9c-0.9,0-1.7,0.8-1.7,1.7v21.6c0,0.9,0.8,1.7,1.7,1.7h14.8
										c0.9,0,1.7-0.8,1.7-1.7V5.9L10.5-1z"/>
								</g>
							</mask>
							<g id="Group" class="st8">
								<g transform="translate(26.625000, -2.958333)">
									<path id="Path_2_" class="st9" d="M-16.1,2v5.1c0,0.9,0.8,1.7,1.7,1.7h5.1L-16.1,2z"/>
								</g>
							</g>
						</g>
						<g id="Clipped_4_">
							<g id="SVGID_5_">
							</g>
							<defs>
								<filter id="Adobe_OpacityMaskFilter_4_" filterUnits="userSpaceOnUse" x="-0.8" y="-1" width="11.4" height="1.8">
									<feColorMatrix  type="matrix" values="1 0 0 0 0  0 1 0 0 0  0 0 1 0 0  0 0 0 1 0"/>
								</filter>
							</defs>
							<mask maskUnits="userSpaceOnUse" x="-0.8" y="-1" width="11.4" height="1.8" id="mask-11_1_">
								<g class="st10">
									<path id="path-10_1_" class="st1" d="M10.5-1H0.9c-0.9,0-1.7,0.8-1.7,1.7v21.6c0,0.9,0.8,1.7,1.7,1.7h14.8
										c0.9,0,1.7-0.8,1.7-1.7V5.9L10.5-1z"/>
								</g>
							</mask>
							<path id="Path_3_" class="st11" d="M0.9-1c-0.9,0-1.7,0.8-1.7,1.7v0.1c0-0.9,0.8-1.7,1.7-1.7h9.7V-1H0.9z"/>
						</g>
						<g id="Clipped_5_">
							<g id="SVGID_6_">
							</g>
							<defs>
								<filter id="Adobe_OpacityMaskFilter_5_" filterUnits="userSpaceOnUse" x="-0.8" y="22.2" width="18.2" height="1.8">
									<feColorMatrix  type="matrix" values="1 0 0 0 0  0 1 0 0 0  0 0 1 0 0  0 0 0 1 0"/>
								</filter>
							</defs>
							<mask maskUnits="userSpaceOnUse" x="-0.8" y="22.2" width="18.2" height="1.8" id="mask-13_1_">
								<g class="st12">
									<path id="path-12_1_" class="st1" d="M10.5-1H0.9c-0.9,0-1.7,0.8-1.7,1.7v21.6c0,0.9,0.8,1.7,1.7,1.7h14.8
										c0.9,0,1.7-0.8,1.7-1.7V5.9L10.5-1z"/>
								</g>
							</mask>
							<path id="Path_4_" class="st13" d="M15.6,23.9H0.9c-0.9,0-1.7-0.8-1.7-1.7v0.1c0,0.9,0.8,1.7,1.7,1.7h14.8
								c0.9,0,1.7-0.8,1.7-1.7v-0.1C17.3,23.1,16.6,23.9,15.6,23.9z"/>
						</g>
						<g id="Clipped_6_">
							<g id="SVGID_7_">
							</g>
							<defs>
								<filter id="Adobe_OpacityMaskFilter_6_" filterUnits="userSpaceOnUse" x="10.5" y="4.2" width="6.8" height="1.8">
									<feColorMatrix  type="matrix" values="1 0 0 0 0  0 1 0 0 0  0 0 1 0 0  0 0 0 1 0"/>
								</filter>
							</defs>
							<mask maskUnits="userSpaceOnUse" x="10.5" y="4.2" width="6.8" height="1.8" id="mask-15_1_">
								<g class="st14">
									<path id="path-14_1_" class="st1" d="M10.5-1H0.9c-0.9,0-1.7,0.8-1.7,1.7v21.6c0,0.9,0.8,1.7,1.7,1.7h14.8
										c0.9,0,1.7-0.8,1.7-1.7V5.9L10.5-1z"/>
								</g>
							</mask>
							<path id="Path_5_" class="st15" d="M12.2,5.9c-0.9,0-1.7-0.8-1.7-1.7v0.1c0,0.9,0.8,1.7,1.7,1.7h5.1V5.9H12.2z"/>
						</g>
					</g>

						<radialGradient id="Path_11_" cx="-916.0853" cy="493.9521" r="0.6194" gradientTransform="matrix(47.3333 0 0 -47.3334 43361.1094 23380.1309)" gradientUnits="userSpaceOnUse">
						<stop  offset="0" style="stop-color:#FFFFFF;stop-opacity:0.1"/>
						<stop  offset="1" style="stop-color:#FFFFFF;stop-opacity:0"/>
					</radialGradient>
					<path id="Path_6_" class="st16" d="M10.5-1H0.9c-0.9,0-1.7,0.8-1.7,1.7v21.6c0,0.9,0.8,1.7,1.7,1.7h14.8c0.9,0,1.7-0.8,1.7-1.7
						V5.9L10.5-1z"/>
				</g>
			</g>
		</g>
	</g>
</g>
</svg>
