<svg xmlns="http://www.w3.org/2000/svg" viewBox="0 0 416.09 408.85"><defs><style>.cls-1{fill:#1a1a1a;fill-rule:evenodd;}</style></defs><g id="Layer_5" data-name="Layer 5"><path d="M289.44,253.76A12,12,0,0,1,297,233.05a12.59,12.59,0,0,1,8.57,2.85l.46.39,3.49,3.21a110,110,0,0,0,3.84-24.32l-2.27.6-.58.14a12.62,12.62,0,0,1-8.92-1.47,12,12,0,0,1,3-21.84c2.36-.64,4.75-1.34,7.14-2.09a110.9,110.9,0,0,0-3.6-14.28c-5.55.32-11.09.65-16.45,1.24a12,12,0,0,1-10.77-19.23,12.61,12.61,0,0,1,7.77-4.63l.59-.09,7.91-.92a109.74,109.74,0,0,0-17.53-21.67L277,136.3l-.28.53a12.57,12.57,0,0,1-6.93,5.8,12,12,0,0,1-14.59-16.52c1.59-3.33,3.1-6.78,4.58-10.28a110.16,110.16,0,0,0-17.43-8.4c-2.51,4-5,8-7.21,12.06a12,12,0,0,1-21.92-2.35,12.57,12.57,0,0,1,.72-9l.27-.54,3.45-6.3a110.79,110.79,0,0,0-28,0l3.45,6.3.27.54a12.57,12.57,0,0,1,.72,9,12,12,0,0,1-21.92,2.35c-2.23-4-4.7-8-7.2-12.06A109.31,109.31,0,0,0,145.52,117c1.66,3.19,3.36,6.33,5.12,9.35A12,12,0,0,1,137.42,144a12.63,12.63,0,0,1-7.38-5.22s-.29-.47-.32-.51l-3.51-5.94a110.15,110.15,0,0,0-18.12,23.72l10.84.38.6,0a12.62,12.62,0,0,1,8.1,4,12,12,0,0,1-9.18,20c-6.72-.2-13.7,0-20.61.18a109.94,109.94,0,0,0-3.28,16.82c5.07,1.72,10.14,3.41,15.14,4.81a12,12,0,0,1,2.79,21.87,12.58,12.58,0,0,1-8.93,1.38l-.58-.14-8.39-2.29a109,109,0,0,0,7.25,28.28l6-5.43.46-.39a12.6,12.6,0,0,1,8.6-2.78,12,12,0,0,1,7.35,20.78c-3.47,3.17-6.88,6.58-10.28,10a109.63,109.63,0,0,0,10.58,12.77c5.79-3.66,11.68-7.3,17.12-11.15a12,12,0,0,1,18.73,11.62,12.59,12.59,0,0,1-4.55,7.81l-.48.36-10.82,7.75a108.87,108.87,0,0,0,30.49,13.46l-.63-12.05s0-.6,0-.6a12.65,12.65,0,0,1,3.26-8.43,12.05,12.05,0,0,1,20.77,7.39c.33,5.7,1,11.55,1.64,17.39,1.18,0,2.36.07,3.55.07a111,111,0,0,0,16.61-1.25c.4-5.69.8-11.39.9-16.92a12,12,0,0,1,20.45-8.23,12.62,12.62,0,0,1,3.6,8.29s0,.56,0,.6l-.11,9.4a109.43,109.43,0,0,0,25.65-14.8l-6.89-4.52-.49-.35a12.64,12.64,0,0,1-4.87-7.61,12,12,0,0,1,18.25-12.37c3.86,2.5,7.94,4.9,12.05,7.27a110.91,110.91,0,0,0,10.72-15.78C296.19,260.32,292.84,256.92,289.44,253.76Z"/></g><g id="icon"><path class="cls-1" d="M179.42,78.47a2,2,0,0,1,3.82,1l-1.82,6.81,11.65,21.3.27.54a12.57,12.57,0,0,1,.72,9,12,12,0,0,1-21.92,2.35c-4.67-8.42-10.38-16.85-15.32-25.2a12.72,12.72,0,0,1-1.28-9.65l6.91-25.77A12.72,12.72,0,0,1,170.71,50l10-2.67.2,0c3.44-9.69,12.23-16.8,22.75-16.8s19.3,7.11,22.74,16.8l.2,0,10,2.67a12.72,12.72,0,0,1,8.26,8.91l6.91,25.77a12.72,12.72,0,0,1-1.28,9.65c-4.94,8.35-10.65,16.78-15.32,25.2a12,12,0,0,1-21.92-2.35,12.57,12.57,0,0,1,.72-9l.27-.54,11.65-21.3L224,79.49a2,2,0,0,1,3.82-1l2,7.57a2,2,0,0,1-.24,1.57c-3.79,6.94-8.91,15.19-12.12,22.19h0A8.7,8.7,0,0,0,217,116a8.11,8.11,0,0,0,14.72,1.53c5.21-8.31,10.23-16.85,15.34-25.23a8.67,8.67,0,0,0,.87-6.64L241,59.83a8.81,8.81,0,0,0-5.61-6.11l-7.84-2.09A27.83,27.83,0,0,1,228,56.5c0,13.63-10.21,26-24.32,26s-24.33-12.41-24.33-26a28.83,28.83,0,0,1,.42-4.87l-7.84,2.09a8.81,8.81,0,0,0-5.61,6.11l-6.92,25.83a8.71,8.71,0,0,0,.87,6.64c5.11,8.38,10.13,16.92,15.35,25.23A8.1,8.1,0,0,0,190.29,116a8.7,8.7,0,0,0-.53-6.2h0c-3.21-7-8.32-15.25-12.12-22.19A2,2,0,0,1,177.4,86l2-7.57Zm24.22-44.06c-11.93,0-20.37,10.63-20.37,22.09s8.44,22.09,20.37,22.09S224,68,224,56.5,215.56,34.41,203.64,34.41Z"/><path class="cls-1" d="M170.62,28.66a8.68,8.68,0,0,1-3.33-17A187.31,187.31,0,0,1,240,11.7a8.68,8.68,0,1,1-3.33,17,170.87,170.87,0,0,0-66-.08Zm-.76-3.88a174.5,174.5,0,0,1,67.55.08,4.73,4.73,0,1,0,1.81-9.28,183.68,183.68,0,0,0-71.17-.08,4.73,4.73,0,0,0,1.81,9.28Z"/><path class="cls-1" d="M86.91,153.31a2,2,0,0,1,2.83-2.76l4.92,5,24.27.86.6,0a12.62,12.62,0,0,1,8.1,4,12,12,0,0,1-9.18,20c-9.62-.28-19.79.31-29.49.29A12.73,12.73,0,0,1,80,177L61.39,157.88A12.71,12.71,0,0,1,58,146.23l2.81-9.94.06-.19C54.25,128.19,52.63,117,58,108S74,95,84.07,97l.14-.15,7.39-7.21a12.72,12.72,0,0,1,11.88-2.55l25.68,7.23a12.7,12.7,0,0,1,7.64,6c4.65,8.51,9,17.73,13.84,26.05A12,12,0,0,1,137.42,144a12.63,12.63,0,0,1-7.38-5.22s-.29-.47-.32-.51l-12.35-20.9-6.79-1.91a2,2,0,1,1,1.08-3.8l7.54,2.12a2,2,0,0,1,1.23,1c4,6.81,8.5,15.43,12.88,21.76h0a8.67,8.67,0,0,0,5.05,3.62,8.1,8.1,0,0,0,8.83-11.87c-4.47-8.72-9.24-17.4-13.84-26.08a8.69,8.69,0,0,0-5.26-4.14l-25.74-7.25a8.84,8.84,0,0,0-8.12,1.7l-5.8,5.68a27.73,27.73,0,0,1,4.4,2.12c11.71,7,17.16,22.09,10,34.22s-23.1,14.57-34.82,7.6a28.71,28.71,0,0,1-4-2.85l-2.21,7.81a8.79,8.79,0,0,0,2.38,7.94l18.67,19.15A8.74,8.74,0,0,0,89,176.88c9.82-.11,19.73-.06,29.53-.3a8.1,8.1,0,0,0,6.2-13.43,8.61,8.61,0,0,0-5.59-2.71h0c-7.66-.82-17.37-.64-25.27-.93a2,2,0,0,1-1.48-.59l-5.47-5.61ZM61.41,110c-6.1,10.25-1.27,23,8.58,28.8s23.3,4,29.39-6.22,1.27-23-8.58-28.8S67.5,99.73,61.41,110Z"/><path class="cls-1" d="M39.59,135.42a8.68,8.68,0,1,1-16.34-5.84A187.1,187.1,0,0,1,60.46,67.14,8.68,8.68,0,0,1,73.41,78.7a171,171,0,0,0-33.82,56.72Zm-3.72-1.33a174.78,174.78,0,0,1,34.59-58,4.73,4.73,0,0,0-7-6.3A183.59,183.59,0,0,0,27,130.91a4.73,4.73,0,0,0,8.9,3.18Z"/><path class="cls-1" d="M174.1,336.38a2,2,0,1,1-3-2.58l4.6-5.34-1.27-24.25s0-.6,0-.6a12.65,12.65,0,0,1,3.26-8.43,12.05,12.05,0,0,1,20.77,7.39c.56,9.61,2,19.69,2.88,29.36a12.74,12.74,0,0,1-3,9.25L180.9,361.4a12.74,12.74,0,0,1-11.31,4.45l-10.15-1.92-.2-.05c-7.3,7.24-18.3,9.83-27.78,5.27s-14.31-14.78-13.21-25l-.16-.12-7.84-6.73a12.75,12.75,0,0,1-3.58-11.62l5-26.21a12.76,12.76,0,0,1,5.33-8.14c8.08-5.38,16.88-10.51,24.74-16.07a12,12,0,0,1,18.73,11.62,12.59,12.59,0,0,1-4.55,7.81l-.48.36-19.73,14.14-1.31,6.93a2,2,0,1,1-3.88-.74l1.45-7.7a2,2,0,0,1,.9-1.31c6.43-4.6,14.62-9.82,20.55-14.74h0a8.7,8.7,0,0,0,3.16-5.35,8.1,8.1,0,0,0-12.6-7.76c-8.3,5.22-16.53,10.74-24.76,16.08a8.7,8.7,0,0,0-3.67,5.61l-5,26.27a8.78,8.78,0,0,0,2.41,7.94l6.16,5.28a27.89,27.89,0,0,1,1.72-4.57c5.91-12.28,20.5-19,33.22-12.92s16.54,21.74,10.62,34a27.34,27.34,0,0,1-2.49,4.2l8,1.52a8.83,8.83,0,0,0,7.7-3.07L195.3,338.6a8.68,8.68,0,0,0,2.09-6.36c-1-9.77-1.79-19.64-2.89-29.38a8.1,8.1,0,0,0-13.92-5,8.7,8.7,0,0,0-2.21,5.81h0c-.14,7.7.89,17.36,1.3,25.26a2,2,0,0,1-.46,1.52l-5.11,5.94Zm-40.92,29.21c10.74,5.17,23-.75,27.93-11.08s2-23.56-8.78-28.73-23,.75-27.93,11.07S122.43,360.42,133.18,365.59Z"/><path class="cls-1" d="M160.43,385.09a8.68,8.68,0,1,1-4.38,16.79,187.28,187.28,0,0,1-65.47-31.59A8.68,8.68,0,0,1,101,356.38a171.15,171.15,0,0,0,59.46,28.71Zm-1,3.82A174.55,174.55,0,0,1,98.6,359.55,4.72,4.72,0,0,0,93,367.12,183.88,183.88,0,0,0,157,398.06a4.73,4.73,0,0,0,2.4-9.15Z"/><path class="cls-1" d="M82.68,266a2,2,0,1,1,.11-3.95l7,.2,18-16.26.46-.39a12.6,12.6,0,0,1,8.6-2.78,12,12,0,0,1,7.35,20.78c-7.11,6.49-14,14-21,20.74a12.7,12.7,0,0,1-9.09,3.47l-26.66-.76a12.74,12.74,0,0,1-10.59-6L52.05,272a1.42,1.42,0,0,1-.08-.18c-10.23-1.11-19.18-8-21.61-18.25s2.45-20.42,11.08-26v-.21L41.72,217a12.75,12.75,0,0,1,6.77-10.1L72,194.25a12.74,12.74,0,0,1,9.68-1c9.27,2.88,18.8,6.48,28.06,9.08a12,12,0,0,1,2.79,21.87,12.58,12.58,0,0,1-8.93,1.38l-.58-.14L79.56,219l-6.2,3.35a2,2,0,0,1-1.88-3.48l6.89-3.72a2,2,0,0,1,1.59-.13c7.62,2.09,16.84,5.16,24.39,6.66h0a8.67,8.67,0,0,0,6.15-.92,8.09,8.09,0,0,0-1.91-14.66C99.3,203,89.83,200.07,80.5,197a8.71,8.71,0,0,0-6.67.69L50.3,210.44a8.79,8.79,0,0,0-4.64,6.87l-.22,8.11a29.23,29.23,0,0,1,4.63-1.54c13.27-3.15,27.71,3.92,31,17.65s-6.45,26.53-19.71,29.69a28.17,28.17,0,0,1-4.83.71l3.84,7.15a8.83,8.83,0,0,0,7.24,4l26.73.76a8.69,8.69,0,0,0,6.26-2.38c7-6.91,14.13-13.77,21-20.77a8,8,0,0,0,2.51-5.29,8.1,8.1,0,0,0-7.4-8.67,8.74,8.74,0,0,0-5.91,1.95h0c-6.07,4.74-12.92,11.63-18.78,16.92a2,2,0,0,1-1.48.6L82.68,266ZM34.21,252.66C37,264.26,49.27,270,60.41,267.37S80,254.05,77.19,242.44,62.13,225.08,51,227.73,31.45,241.05,34.21,252.66Z"/><path class="cls-1" d="M36.25,286.11a8.68,8.68,0,1,1-15.8,7.18A187.41,187.41,0,0,1,3.72,222.55a8.68,8.68,0,1,1,17.34-.7,170.94,170.94,0,0,0,15.19,64.26Zm-3.6,1.64A174.7,174.7,0,0,1,17.11,222a4.73,4.73,0,0,0-9.45.38,183.29,183.29,0,0,0,16.39,69.26,4.72,4.72,0,0,0,8.6-3.9Z"/><path class="cls-1" d="M289.59,311.9a2,2,0,1,1-3.84.89l-1.59-6.87-20.3-13.32-.49-.35a12.64,12.64,0,0,1-4.87-7.61,12,12,0,0,1,18.25-12.37c8.08,5.23,17.08,10,25.37,15.05a12.7,12.7,0,0,1,5.66,7.92l6,26A12.74,12.74,0,0,1,310.68,333l-7.55,7-.16.13c1.51,10.17-2.9,20.57-12.19,25.52s-20.38,2.79-28-4.15l-.2.06-10.06,2.33a12.73,12.73,0,0,1-11.48-4l-18.2-19.5a12.72,12.72,0,0,1-3.41-9.12c.44-9.69,1.52-19.82,1.69-29.45a12,12,0,0,1,20.45-8.23,12.62,12.62,0,0,1,3.6,8.29s0,.56,0,.6l-.28,24.28,4.81,5.16a2,2,0,0,1-2.89,2.69l-5.35-5.73a2,2,0,0,1-.52-1.5c.09-7.91.73-17.6.27-25.28h0a8.66,8.66,0,0,0-2.44-5.72A8.1,8.1,0,0,0,225.1,302c-.7,9.78-1.12,19.68-1.69,29.48a8.67,8.67,0,0,0,2.35,6.27L244,357.28a8.82,8.82,0,0,0,7.83,2.76l7.9-1.84a28.28,28.28,0,0,1-2.66-4.1c-6.4-12-3.22-27.79,9.24-34.42s27.3-.47,33.71,11.56a27.86,27.86,0,0,1,1.91,4.5l5.94-5.53a8.81,8.81,0,0,0,2.09-8l-6-26.05a8.73,8.73,0,0,0-3.89-5.46c-8.45-5-16.89-10.18-25.4-15.05a8.1,8.1,0,0,0-12.27,8.26,8.69,8.69,0,0,0,3.38,5.22h0c6.12,4.67,14.52,9.55,21.13,13.89a2,2,0,0,1,.95,1.28l1.76,7.63Zm-.67,50.27c10.53-5.6,13-19,7.61-29.07s-17.83-15.53-28.36-9.93-13,19-7.61,29.07S278.39,367.78,288.92,362.17Z"/><path class="cls-1" d="M320.77,351.74a8.68,8.68,0,1,1,10.94,13.47,187.2,187.2,0,0,1-64.2,34.08,8.68,8.68,0,1,1-5.07-16.6,170.91,170.91,0,0,0,58.33-30.95Zm2.49,3.06a174.59,174.59,0,0,1-59.66,31.67,4.73,4.73,0,1,0,2.76,9,183.4,183.4,0,0,0,62.86-33.37,4.73,4.73,0,0,0-6-7.34Z"/><path class="cls-1" d="M292.85,108.31a2,2,0,0,1,1.38,3.71l-6.61,2.45L277,136.3l-.28.53a12.57,12.57,0,0,1-6.93,5.8,12,12,0,0,1-14.59-16.52c4.15-8.68,7.73-18.22,11.68-27.08A12.73,12.73,0,0,1,274,92.41l25-9.28a12.76,12.76,0,0,1,12.06,1.58L319,91.3l.15.14c9.9-2.8,20.78.25,26.87,8.83s5.37,19.86-.54,28.28a1.42,1.42,0,0,1,.08.18l3.6,9.68a12.73,12.73,0,0,1-2.49,11.9l-17,20.54a12.68,12.68,0,0,1-8.6,4.54c-9.67.81-19.86,1-29.43,2.09a12,12,0,0,1-10.77-19.23,12.61,12.61,0,0,1,7.77-4.63l.59-.09,24.11-2.82,4.5-5.43a2,2,0,1,1,3,2.53l-5,6a1.94,1.94,0,0,1-1.42.71c-7.85.92-17.55,1.52-25.11,3h0a8.69,8.69,0,0,0-5.36,3.15,8.1,8.1,0,0,0,7.27,12.89c9.79-.55,19.66-1.4,29.45-2.09a8.69,8.69,0,0,0,5.92-3.13l17.06-20.59a8.82,8.82,0,0,0,1.74-8.11L342.58,132a27.2,27.2,0,0,1-3.72,3.16c-11.12,7.89-27.15,6.74-35.32-4.76s-4-27,7.17-34.92A27.18,27.18,0,0,1,314.92,93l-6.24-5.19a8.79,8.79,0,0,0-8.23-1l-25.07,9.3a8.68,8.68,0,0,0-4.91,4.55c-3.88,9-7.94,18.06-11.7,27.12a8.1,8.1,0,0,0,9.76,11.11,8.72,8.72,0,0,0,4.75-4h0c3.85-6.67,7.63-15.62,11.08-22.73a2,2,0,0,1,1.15-1.11l7.34-2.73Zm49.95-5.75c-6.9-9.73-20.46-10.46-29.8-3.83s-13.13,19.67-6.23,29.4,20.46,10.46,29.8,3.83S349.7,112.29,342.8,102.56Z"/><path class="cls-1" d="M328.38,72.31a8.68,8.68,0,0,1,12-12.58,187.17,187.17,0,0,1,42,59.33,8.68,8.68,0,1,1-15.82,7.15,170.59,170.59,0,0,0-38.15-53.9Zm2.73-2.87a174.82,174.82,0,0,1,39,55.14,4.73,4.73,0,0,0,8.62-3.89A183.55,183.55,0,0,0,337.63,62.6a4.72,4.72,0,1,0-6.52,6.84Z"/><path class="cls-1" d="M342.62,209.52a2,2,0,0,1-1.91,3.46l-6.17-3.41-23.48,6.21-.58.14a12.62,12.62,0,0,1-8.92-1.47,12,12,0,0,1,3-21.84c9.29-2.52,18.85-6,28.14-8.83a12.73,12.73,0,0,1,9.67,1.07l23.36,12.88a12.75,12.75,0,0,1,6.68,10.16l.19,10.33v.2c8.58,5.67,13.37,15.9,10.85,26.11s-11.53,17-21.76,18.06l-.09.18-5,9.05A12.69,12.69,0,0,1,346,277.7l-26.67.53a12.67,12.67,0,0,1-9.06-3.55c-6.93-6.8-13.75-14.36-20.8-20.92A12,12,0,0,1,297,233.05a12.63,12.63,0,0,1,8.58,2.85l.45.39,17.88,16.42,7.05-.13a2,2,0,1,1,.08,3.95l-7.84.15a2,2,0,0,1-1.46-.61c-5.83-5.35-12.62-12.3-18.64-17.09h0a8.66,8.66,0,0,0-5.89-2,8.1,8.1,0,0,0-7.48,8.6,8,8,0,0,0,2.47,5.32c6.81,7.06,13.9,14,20.81,21a8.68,8.68,0,0,0,6.24,2.43l26.74-.52a8.79,8.79,0,0,0,7.27-4l3.91-7.11a28.88,28.88,0,0,1-4.82-.75c-13.24-3.27-22.84-16.17-19.46-29.87S350.74,211.4,364,214.67a27.93,27.93,0,0,1,4.62,1.58l-.15-8.12a8.81,8.81,0,0,0-4.58-6.91l-23.42-12.91a8.69,8.69,0,0,0-6.66-.74c-9.36,3-18.86,5.77-28.17,8.85A8,8,0,0,0,301,200a8.11,8.11,0,0,0,2.62,11.1,8.7,8.7,0,0,0,6.14,1h0c7.57-1.44,16.81-4.43,24.45-6.45a2,2,0,0,1,1.58.14l6.87,3.79Zm37,34.06c2.86-11.58-5.44-22.32-16.56-25.07s-23.47,2.9-26.33,14.48,5.44,22.33,16.56,25.08S376.73,255.16,379.59,243.58Z"/><path class="cls-1" d="M393.09,212.91a8.68,8.68,0,0,1,17.34.85,187.33,187.33,0,0,1-17.51,70.55A8.68,8.68,0,1,1,377.18,277a170.88,170.88,0,0,0,15.91-64.09Zm4,.19a174.55,174.55,0,0,1-16.28,65.56,4.73,4.73,0,0,0,8.58,4,183.53,183.53,0,0,0,17.14-69.08,4.73,4.73,0,0,0-9.44-.47Z"/></g></svg>